# Blender 5.1.1
# www.blender.org
mtllib rock_lp_09.mtl
o rock_lp_09
v -2.731527 1.863739 -0.020244
v -2.127846 2.080881 -0.358390
v -3.169728 1.958114 -0.497464
v -2.697740 0.187534 -1.283868
v -2.064056 2.112612 -0.564490
v -2.491249 -0.282529 -0.100496
v -1.734872 -0.282529 -0.591640
v -3.085091 -0.282529 -0.630146
v -1.938330 -0.282529 -1.468039
v -2.677930 -0.282529 -1.310605
v -1.660691 -0.282529 -0.831312
v -2.675464 0.985468 -1.049914
v -2.150384 1.055464 -1.241433
v -2.594775 0.838852 -0.041624
v -3.017307 0.870917 -0.626869
v -1.791937 0.991946 -0.712098
v -1.920104 1.097009 -0.668311
v -1.983894 1.065278 -0.462211
v -1.886675 0.965377 -0.410860
v -2.960264 -0.282529 -0.486563
v -2.888241 0.413700 -0.404210
v -2.584388 0.916504 -0.217099
v -2.814966 0.507661 -0.496073
v -2.249323 1.761182 -1.157434
v -2.216390 2.021490 -0.963312
v -2.477944 2.001081 -1.084704
v -2.716271 2.022689 -1.028823
v -3.003811 2.019008 -0.841755
v -2.765094 2.056716 -0.894798
v -2.839756 0.936081 -0.995303
v -2.614713 0.291897 -1.164493
v -2.642451 0.978254 -1.136690
v -2.571250 0.254245 -1.258131
v -2.778029 0.219849 -1.133863
v -2.540010 0.245646 -0.072767
v -1.995584 0.078729 -1.406855
v -1.806372 0.305240 -0.506492
v -1.722761 0.320207 -0.774932
v -2.940818 -0.094547 -0.464328
v -2.687835 -0.047498 -1.297237
v -3.072913 -0.075303 -0.629557
v -2.925523 -0.093590 -0.488837
vn -0.2044 0.3488 0.9147
vn 0.4966 0.6555 0.5689
vn -0.8545 0.4838 0.1893
vn -0.4489 0.3468 -0.8235
vn 0.6625 0.7491 -0.0046
vn -0.0452 -0.0627 0.9970
vn 0.8207 0.0159 0.5712
vn -0.9944 0.0513 0.0922
vn 0.4652 0.2190 -0.8577
vn -0.5542 0.0385 -0.8315
vn 0.9883 0.1242 -0.0884
vn -0.6992 0.0426 -0.7137
vn 0.4098 0.2149 -0.8865
vn -0.3198 0.4610 0.8278
vn -0.9802 -0.0998 0.1708
vn 0.8924 0.4413 -0.0945
vn 0.8589 0.5122 -0.0076
vn 0.6120 0.4159 0.6726
vn 0.6640 0.3799 0.6440
vn -0.7152 0.0427 0.6977
vn -0.9728 0.1998 0.1175
vn -0.4535 0.3509 0.8193
vn -0.8444 0.2226 0.4872
vn 0.4348 0.2391 -0.8682
vn 0.5413 0.6838 -0.4892
vn -0.0224 0.6425 -0.7659
vn -0.5269 0.5540 -0.6445
vn -0.5744 0.6221 -0.5321
vn -0.3479 0.8482 -0.3994
vn -0.6657 0.0410 -0.7451
vn -0.6248 0.3619 -0.6919
vn -0.6644 0.0480 -0.7459
vn -0.3422 0.3083 -0.8876
vn -0.7598 0.1915 -0.6213
vn -0.1184 -0.0565 0.9914
vn 0.4299 0.2037 -0.8796
vn 0.7878 0.0123 0.6158
vn 0.9875 0.1284 -0.0918
vn -0.9856 0.0696 0.1539
vn -0.5560 0.0584 -0.8291
vn -0.9842 0.0923 0.1513
vn -0.9746 0.1808 0.1321
vt 0.463005 0.583809
vt 0.477687 0.669859
vt 0.453245 0.662581
vt 0.146073 0.552010
vt 0.025441 0.479081
vt 0.146833 0.471562
vt 0.341024 0.304131
vt 0.385468 0.326985
vt 0.342650 0.372655
vt 0.025381 0.454878
vt 0.146633 0.447359
vt 0.413315 0.650218
vt 0.334091 0.654654
vt 0.335707 0.632655
vt 0.423846 0.641993
vt 0.485362 0.376581
vt 0.436505 0.476798
vt 0.425304 0.383184
vt 0.025151 0.685184
vt 0.146873 0.667352
vt 0.146717 0.694839
vt 0.501539 0.508926
vt 0.437925 0.507751
vt 0.025187 0.619238
vt 0.147180 0.624380
vt 0.499424 0.480364
vt 0.370533 0.502937
vt 0.351288 0.568307
vt 0.352758 0.498842
vt 0.450992 0.311283
vt 0.400171 0.334960
vt 0.368941 0.473397
vt 0.110049 0.384855
vt 0.144486 0.401246
vt 0.429553 0.260279
vt 0.412847 0.278796
vt 0.339824 0.228160
vt 0.429553 0.177338
vt 0.355817 0.164300
vt 0.339541 0.404317
vt 0.354239 0.474267
vt 0.452136 0.314421
vt 0.356436 0.389842
vt 0.423777 0.745752
vt 0.347705 0.744816
vt 0.322620 0.700339
vt 0.146068 0.340810
vt 0.144617 0.367441
vt 0.024912 0.384051
vt 0.025030 0.324712
vt 0.449272 0.755331
vt 0.025178 0.314702
vt 0.475299 0.307062
vt 0.336527 0.267908
vt 0.363583 0.286907
vt 0.341010 0.622699
vt 0.025089 0.665223
vt 0.429924 0.656774
vt 0.417773 0.671195
vt 0.441225 0.775321
vt 0.499859 0.588199
vt 0.025451 0.553062
vt 0.331326 0.201168
vt 0.415325 0.767960
vt 0.147180 0.326089
vt 0.328875 0.240864
s 1
usemtl RockSet2
f 36/1/36 10/2/10 40/3/40
f 1/4/1 18/5/18 2/6/2
f 15/7/15 23/8/23 22/9/22
f 2/6/2 17/10/17 5/11/5
f 31/12/31 30/13/30 12/14/12
f 36/1/36 40/3/40 33/15/33
f 6/16/6 37/17/37 35/18/35
f 12/19/12 28/20/28 29/21/29
f 11/22/11 36/1/36 38/23/38
f 15/24/15 1/4/1 3/25/3
f 7/26/7 38/23/38 37/17/37
f 16/27/16 13/28/13 17/29/17
f 42/30/42 21/31/21 23/8/23
f 17/29/17 19/32/19 16/27/16
f 17/10/17 24/33/24 25/34/25
f 2/35/2 5/36/5 29/37/29
f 1/38/1 2/35/2 3/39/3
f 22/40/22 19/32/19 18/41/18
f 35/18/35 21/31/21 39/42/39
f 23/8/23 14/43/14 22/9/22
f 41/44/41 23/45/23 15/46/15
f 24/33/24 27/47/27 26/48/26
f 24/33/24 26/48/26 25/34/25
f 5/11/5 17/10/17 25/34/25
f 13/49/13 32/50/32 24/33/24
f 40/3/40 8/51/8 41/44/41
f 12/52/12 27/47/27 32/50/32
f 6/16/6 39/42/39 20/53/20
f 26/54/26 29/37/29 25/55/25
f 31/12/31 32/56/32 33/15/33
f 15/24/15 28/20/28 30/57/30
f 4/58/4 40/3/40 34/59/34
f 31/12/31 4/58/4 34/59/34
f 37/17/37 16/27/16 19/32/19
f 38/23/38 13/28/13 16/27/16
f 35/18/35 19/32/19 14/43/14
f 33/15/33 40/3/40 4/58/4
f 20/60/20 41/44/41 8/51/8
f 34/59/34 15/46/15 30/13/30
f 20/53/20 39/42/39 42/30/42
f 34/59/34 40/3/40 41/44/41
f 13/28/13 33/15/33 32/56/32
f 36/1/36 9/61/9 10/2/10
f 1/4/1 22/62/22 18/5/18
f 2/6/2 18/5/18 17/10/17
f 31/12/31 34/59/34 30/13/30
f 6/16/6 7/26/7 37/17/37
f 12/19/12 30/57/30 28/20/28
f 11/22/11 9/61/9 36/1/36
f 15/24/15 22/62/22 1/4/1
f 7/26/7 11/22/11 38/23/38
f 42/30/42 39/42/39 21/31/21
f 17/29/17 18/41/18 19/32/19
f 17/10/17 13/49/13 24/33/24
f 28/63/28 3/39/3 29/37/29
f 3/39/3 2/35/2 29/37/29
f 22/40/22 14/43/14 19/32/19
f 35/18/35 14/43/14 21/31/21
f 23/8/23 21/31/21 14/43/14
f 41/44/41 42/64/42 23/45/23
f 24/33/24 32/50/32 27/47/27
f 40/3/40 10/2/10 8/51/8
f 12/52/12 29/65/29 27/47/27
f 6/16/6 35/18/35 39/42/39
f 27/66/27 29/37/29 26/54/26
f 29/37/29 5/36/5 25/55/25
f 31/12/31 12/14/12 32/56/32
f 15/24/15 3/25/3 28/20/28
f 31/12/31 33/15/33 4/58/4
f 37/17/37 38/23/38 16/27/16
f 38/23/38 36/1/36 13/28/13
f 35/18/35 37/17/37 19/32/19
f 20/60/20 42/64/42 41/44/41
f 34/59/34 41/44/41 15/46/15
f 13/28/13 36/1/36 33/15/33
