# Blender 5.1.1
# www.blender.org
mtllib rock_lp_08.mtl
o rock_lp_08
v 0.072405 1.256210 1.659324
v -0.442345 1.315228 2.086090
v -0.086613 1.256210 1.414862
v 0.063589 -0.288927 1.660463
v -0.904570 -0.288927 1.246212
v -0.769814 -0.282903 2.189554
v -0.433354 -0.282903 2.170249
v -1.259938 -0.288927 1.737219
v -0.095429 -0.288927 1.416001
v 0.133199 0.516567 1.339381
v 0.306234 0.519420 1.707367
v -0.971099 0.542907 1.607367
v -0.902137 0.542907 1.295414
v -0.769814 0.548931 2.189554
v -0.433354 0.548931 2.170249
v -0.490422 1.315228 1.421546
v -0.474392 -0.288927 1.421321
v -0.505120 0.515269 1.334807
v -0.343773 1.315228 1.785325
v -0.490422 1.466384 1.421546
v -0.800659 1.411191 1.425900
v -0.778805 1.466384 2.105396
v -0.442345 1.436152 2.086090
v -0.971099 1.466384 1.607367
v -0.343773 1.466384 1.785325
v 0.149146 1.065481 1.706373
v -0.800659 1.086705 1.425900
v -0.053921 1.037357 1.410637
v -0.442345 1.086705 2.086090
v -0.496056 1.083698 1.388925
v -0.971099 1.076095 1.607367
v -0.778805 1.076095 2.105396
v -0.417389 1.025055 2.178487
v -0.835962 1.006263 2.197061
v -0.960411 0.877995 1.819889
v -0.916584 0.872772 1.748558
v -0.080034 0.509729 1.959255
v 0.178276 0.591656 1.653434
v 0.012858 0.590308 1.402007
v -0.150810 0.565806 1.882851
v -0.871469 1.016070 1.345049
v -0.505323 1.036956 1.290011
v -1.137259 -0.288927 1.360188
v -1.307699 -0.288927 1.541655
v -1.307699 0.489750 1.541655
v -1.048396 -0.288927 1.896414
v -1.137259 0.489750 1.360188
v -1.224637 0.489750 1.722076
v -1.062706 0.508427 1.878011
v -0.887749 -0.282903 2.209258
v -0.873178 0.201020 2.206823
v -0.909299 0.528997 2.066988
v -0.814571 0.547592 2.060102
v -0.769814 0.216455 2.189554
v 0.092162 0.293704 1.331152
v 0.258189 0.295130 1.637375
v -0.256694 0.142340 2.064752
v -0.433354 0.211400 2.170249
v -0.299160 0.150566 2.033750
vn 0.7313 0.6797 0.0575
vn 0.4890 0.1012 0.8664
vn 0.3948 0.5979 -0.6976
vn 0.9390 -0.3043 0.1604
vn -0.0589 -0.0172 -0.9981
vn 0.1112 -0.0000 0.9938
vn 0.3850 -0.0323 0.9224
vn -0.8351 0.0485 0.5480
vn 0.3931 -0.2552 -0.8834
vn 0.5299 0.3941 -0.7509
vn 0.8929 0.3174 0.3194
vn -0.7168 0.6972 -0.0059
vn -0.3335 0.2863 -0.8982
vn -0.5381 -0.0477 0.8415
vn 0.4107 -0.0145 0.9117
vn 0.2660 0.2713 -0.9250
vn 0.1691 -0.1076 -0.9797
vn 0.0756 -0.0100 -0.9971
vn 0.6795 0.7335 -0.0185
vn 0.4286 0.6047 -0.6713
vn -0.3594 0.4242 -0.8312
vn -0.4234 0.6010 0.6779
vn 0.5168 0.5287 0.6734
vn -0.7711 0.6125 -0.1737
vn 0.7673 0.6412 -0.0121
vn 0.9524 0.2196 0.2115
vn -0.3778 0.5370 -0.7543
vn 0.5378 0.1339 -0.8324
vn 0.2910 0.5252 0.7997
vn -0.0057 0.5879 -0.8089
vn -0.9925 0.0695 -0.1010
vn -0.5681 0.5226 0.6358
vn 0.3293 0.4165 0.8474
vn -0.5722 0.3969 0.7177
vn -0.9092 0.4094 -0.0759
vn -0.9647 0.2630 0.0168
vn 0.1914 0.4563 0.8690
vn 0.7256 0.6791 0.1113
vn 0.3837 0.5048 -0.7733
vn 0.4686 0.2839 0.8365
vn -0.5486 0.3992 -0.7346
vn 0.0271 0.4793 -0.8772
vn -0.5941 -0.0000 -0.8044
vn -0.9705 0.0235 -0.2398
vn -0.8210 0.5549 -0.1342
vn -0.7674 0.0260 0.6406
vn -0.4772 0.5749 -0.6646
vn -0.6659 0.5980 0.4460
vn -0.6035 0.6666 0.4375
vn -0.4606 0.0183 0.8874
vn -0.3918 0.1399 0.9094
vn -0.4027 0.6788 0.6141
vn -0.8033 0.2516 0.5398
vn 0.0275 0.1041 0.9942
vn 0.4894 -0.1618 -0.8569
vn 0.9568 -0.2594 0.1310
vn 0.1207 0.1906 0.9742
vn 0.4129 -0.0000 0.9108
vn 0.1590 0.2698 0.9497
vt 0.162883 0.586459
vt 0.234289 0.555105
vt 0.234757 0.588042
vt 0.162883 0.502137
vt 0.266217 0.491864
vt 0.351895 0.873609
vt 0.333680 0.836973
vt 0.387493 0.856422
vt 0.389539 0.803380
vt 0.432698 0.840627
vt 0.807617 0.459867
vt 0.794668 0.431560
vt 0.844854 0.453991
vt 0.412668 0.912288
vt 0.408379 0.901467
vt 0.485503 0.895756
vt 0.378668 0.926064
vt 0.710079 0.803768
vt 0.690761 0.832765
vt 0.665888 0.817763
vt 0.838752 0.751850
vt 0.755761 0.761060
vt 0.788985 0.722625
vt 0.724142 0.778040
vt 0.730310 0.789414
vt 0.860727 0.726807
vt 0.817915 0.687796
vt 0.797404 0.465887
vt 0.726408 0.436715
vt 0.779008 0.436488
vt 0.733797 0.408974
vt 0.776739 0.388256
vt 0.892881 0.367356
vt 0.863244 0.335702
vt 0.889424 0.333000
vt 0.849061 0.393221
vt 0.846205 0.339464
vt 0.859604 0.368881
vt 0.859405 0.493544
vt 0.845640 0.492591
vt 0.791432 0.387146
vt 0.857148 0.257714
vt 0.888062 0.282933
vt 0.864118 0.289782
vt 0.893488 0.396296
vt 0.889281 0.457066
vt 0.885418 0.495345
vt 0.860854 0.570122
vt 0.288976 0.919426
vt 0.336110 0.936711
vt 0.328725 0.943838
vt 0.371965 0.915104
vt 0.336508 0.881854
vt 0.725861 0.844308
vt 0.334469 0.945952
vt 0.278792 0.558341
vt 0.264393 0.558585
vt 0.797295 0.799449
vt 0.262423 0.633278
vt 0.287154 0.591825
vt 0.276033 0.632384
vt 0.216628 0.657518
vt 0.162337 0.679369
vt 0.219149 0.663705
vt 0.746682 0.751875
vt 0.164275 0.422071
vt 0.262732 0.395174
vt 0.262618 0.422412
vt 0.164389 0.394833
vt 0.261021 0.374015
vt 0.292243 0.412805
vt 0.297491 0.377430
vt 0.321592 0.397294
vt 0.266926 0.353454
vt 0.281014 0.323462
vt 0.232629 0.300217
vt 0.269654 0.329663
vt 0.227365 0.312725
vt 0.166337 0.292692
vt 0.371164 0.819469
vt 0.164684 0.343662
vt 0.164487 0.371862
vt 0.163895 0.305223
vt 0.163008 0.450653
vt 0.268573 0.448964
vt 0.264862 0.589071
vt 0.346722 0.764246
vt 0.308875 0.780961
vt 0.162998 0.549379
vt 0.876588 0.244100
vt 0.884293 0.575575
vt 0.480136 0.832777
vt 0.763871 0.833998
vt 0.275518 0.318517
vt 0.273116 0.643284
s 1
usemtl RockSet2
f 4/1/4 55/2/55 56/3/56
f 55/2/55 17/4/17 18/5/18
f 14/6/14 54/7/54 15/8/15
f 15/8/15 59/9/59 40/10/40
f 23/11/23 25/12/25 22/13/22
f 29/14/29 33/15/33 26/16/26
f 32/17/32 33/15/33 29/14/29
f 31/18/31 36/19/36 32/20/32
f 39/21/39 42/22/42 28/23/28
f 27/24/27 41/25/41 31/18/31
f 38/26/38 28/23/28 26/27/26
f 2/28/2 1/29/1 19/30/19
f 19/30/19 3/31/3 16/32/16
f 27/33/27 16/34/16 30/35/30
f 24/36/24 20/37/20 21/38/21
f 2/39/2 23/40/23 22/13/22
f 19/30/19 23/11/23 2/28/2
f 20/41/20 19/30/19 16/32/16
f 21/38/21 20/37/20 16/34/16
f 25/12/25 24/36/24 22/13/22
f 1/42/1 28/43/28 3/44/3
f 21/38/21 31/45/31 24/36/24
f 3/44/3 30/35/30 16/34/16
f 31/45/31 22/13/22 24/36/24
f 32/46/32 2/39/2 22/13/22
f 29/47/29 1/48/1 2/39/2
f 12/49/12 35/50/35 36/51/36
f 40/10/40 26/16/26 33/15/33
f 14/6/14 33/15/33 34/52/34
f 53/53/53 35/50/35 12/49/12
f 36/19/36 31/18/31 12/54/12
f 35/50/35 32/17/32 36/55/36
f 39/56/39 10/57/10 18/5/18
f 18/58/18 41/25/41 42/22/42
f 37/59/37 38/60/38 40/61/40
f 38/60/38 10/57/10 39/56/39
f 56/3/56 37/59/37 57/62/57
f 40/10/40 33/15/33 15/8/15
f 7/63/7 57/62/57 59/64/59
f 41/25/41 12/54/12 31/18/31
f 27/24/27 42/22/42 41/25/41
f 42/22/42 30/65/30 28/23/28
f 43/66/43 45/67/45 47/68/47
f 44/69/44 48/70/48 45/67/45
f 47/71/47 12/72/12 13/73/13
f 49/74/49 53/75/53 12/72/12
f 54/76/54 52/77/52 51/78/51
f 48/70/48 12/72/12 45/67/45
f 51/78/51 6/79/6 54/76/54
f 49/74/49 51/78/51 52/77/52
f 54/7/54 58/80/58 15/8/15
f 53/53/53 14/6/14 34/52/34
f 54/7/54 14/6/14 53/53/53
f 46/81/46 48/70/48 8/82/8
f 46/81/46 50/83/50 51/78/51
f 4/1/4 57/62/57 7/63/7
f 5/84/5 18/5/18 17/4/17
f 10/57/10 55/2/55 18/5/18
f 5/84/5 47/68/47 13/85/13
f 56/3/56 10/57/10 11/86/11
f 58/80/58 7/87/7 59/9/59
f 37/59/37 59/64/59 57/62/57
f 58/80/58 6/88/6 7/87/7
f 4/1/4 9/89/9 55/2/55
f 55/2/55 9/89/9 17/4/17
f 15/8/15 58/80/58 59/9/59
f 32/17/32 34/52/34 33/15/33
f 39/21/39 18/58/18 42/22/42
f 38/26/38 39/21/39 28/23/28
f 19/30/19 1/29/1 3/31/3
f 27/33/27 21/38/21 16/34/16
f 19/30/19 25/12/25 23/11/23
f 20/41/20 25/12/25 19/30/19
f 25/12/25 20/41/20 24/36/24
f 1/42/1 26/90/26 28/43/28
f 21/38/21 27/33/27 31/45/31
f 3/44/3 28/43/28 30/35/30
f 31/45/31 32/46/32 22/13/22
f 32/46/32 29/47/29 2/39/2
f 29/47/29 26/91/26 1/48/1
f 40/10/40 38/92/38 26/16/26
f 14/6/14 15/8/15 33/15/33
f 53/53/53 34/52/34 35/50/35
f 35/50/35 34/52/34 32/17/32
f 18/58/18 13/93/13 41/25/41
f 37/59/37 11/86/11 38/60/38
f 38/60/38 11/86/11 10/57/10
f 56/3/56 11/86/11 37/59/37
f 41/25/41 13/93/13 12/54/12
f 27/24/27 30/65/30 42/22/42
f 43/66/43 44/69/44 45/67/45
f 44/69/44 8/82/8 48/70/48
f 47/71/47 45/67/45 12/72/12
f 49/74/49 52/77/52 53/75/53
f 54/76/54 53/94/53 52/77/52
f 48/70/48 49/74/49 12/72/12
f 51/78/51 50/83/50 6/79/6
f 49/74/49 46/81/46 51/78/51
f 46/81/46 49/74/49 48/70/48
f 4/1/4 56/3/56 57/62/57
f 5/84/5 13/85/13 18/5/18
f 5/84/5 43/66/43 47/68/47
f 56/3/56 55/2/55 10/57/10
f 37/59/37 40/95/40 59/64/59
f 58/80/58 54/7/54 6/88/6
