# Blender 5.1.1
# www.blender.org
mtllib rock_lp_11.mtl
o rock_lp_11
v 2.486574 0.416638 1.011441
v 3.173925 0.349737 1.017373
v 2.597849 0.502443 0.580602
v 3.216840 0.358041 0.932185
v 2.753168 0.487068 0.511049
v 2.577075 0.448730 1.132049
v 2.786272 0.475348 1.100058
v 2.698931 0.496408 1.070850
v 3.304854 -0.068571 0.864720
v 3.221287 -0.068571 1.021174
v 2.533149 -0.068571 0.513447
v 2.733403 -0.068571 0.444675
v 2.393788 -0.068571 1.041355
v 2.757051 -0.068571 1.169670
v 2.509473 -0.068571 1.197912
v 2.648961 -0.068571 1.148705
v 3.002311 -0.068571 0.693650
v 2.912478 0.481147 0.805284
v 3.022035 -0.068571 0.607214
v 3.245627 0.214492 0.915004
v 3.183764 0.199226 1.039989
v 2.565499 0.216936 0.547024
v 2.743286 0.209249 0.477862
v 2.438290 0.173338 1.023875
v 2.772438 0.217845 1.133014
v 2.545165 0.190775 1.167503
v 2.673946 0.213919 1.109777
v 2.983902 0.208316 0.617372
v 2.961799 0.179337 0.743994
v 2.957090 0.498506 0.652430
v 2.822795 0.424617 1.066132
v 2.924262 0.408271 0.831479
v 2.494093 0.192463 0.814694
v 2.531001 0.451783 0.827986
v 2.457244 -0.068571 0.800978
v 3.281208 -0.274475 0.864678
v 3.202208 -0.274475 1.012581
v 2.551681 -0.274475 0.532604
v 2.740990 -0.274475 0.467591
v 2.419937 -0.274475 1.031659
v 2.763345 -0.274475 1.152961
v 2.529298 -0.274475 1.179659
v 2.661163 -0.274475 1.133141
v 2.995200 -0.274475 0.702958
v 3.013846 -0.274475 0.621247
v 2.479925 -0.274475 0.804420
vn -0.8267 0.5396 0.1596
vn 0.4951 0.5920 0.6359
vn -0.5426 0.7065 -0.4544
vn 0.7427 0.6432 -0.1864
vn 0.0928 0.6473 -0.7565
vn -0.2586 0.5948 0.7612
vn 0.3286 0.5871 0.7398
vn -0.0607 0.8463 0.5292
vn 0.9545 0.0648 -0.2910
vn 0.6589 -0.0224 0.7519
vn -0.7307 0.0159 -0.6825
vn 0.0777 0.0096 -0.9969
vn -0.9803 0.0284 0.1952
vn 0.0369 0.0151 0.9992
vn -0.3214 0.0212 0.9467
vn 0.0930 0.0221 0.9954
vn 0.9220 0.0941 -0.3756
vn 0.6465 0.7366 0.1984
vn 0.9118 0.0363 -0.4089
vn 0.9392 0.2274 -0.2574
vn 0.5977 0.1135 0.7937
vn -0.7384 0.1549 -0.6564
vn 0.0802 0.1154 -0.9901
vn -0.9650 0.1912 0.1794
vn 0.0177 0.1562 0.9876
vn -0.2622 0.1665 0.9505
vn 0.0880 0.1181 0.9891
vn 0.9003 0.1197 -0.4186
vn 0.8938 0.2378 -0.3803
vn 0.6822 0.6999 -0.2116
vn 0.6656 0.3848 0.6394
vn 0.8422 0.5331 -0.0803
vn -0.9593 0.1528 -0.2377
vn -0.7809 0.6195 -0.0800
vn -0.9673 0.0191 -0.2528
vn 0.9502 -0.1091 -0.2920
vn 0.6293 -0.0905 0.7719
vn -0.7277 -0.1282 -0.6738
vn 0.1029 -0.1063 -0.9890
vn -0.9747 -0.1323 0.1801
vn 0.0644 -0.0788 0.9948
vn -0.2662 -0.1105 0.9576
vn 0.0630 -0.0715 0.9954
vn 0.9095 -0.0501 -0.4127
vn 0.9198 -0.0630 -0.3874
vn -0.9610 -0.1101 -0.2537
vt 0.633346 0.447752
vt 0.667187 0.419480
vt 0.667624 0.450136
vt 0.578301 0.281349
vt 0.597983 0.296804
vt 0.578424 0.296874
vt 0.569685 0.373744
vt 0.585488 0.412434
vt 0.561903 0.410786
vt 0.530570 0.394932
vt 0.553221 0.369339
vt 0.543571 0.403759
vt 0.615750 0.415449
vt 0.640100 0.383581
vt 0.636459 0.418346
vt 0.519995 0.390685
vt 0.522594 0.362481
vt 0.529761 0.362617
vt 0.543945 0.342563
vt 0.543991 0.296749
vt 0.476003 0.266988
vt 0.454546 0.234577
vt 0.492718 0.212450
vt 0.537038 0.430476
vt 0.510234 0.421867
vt 0.498673 0.241613
vt 0.667856 0.386903
vt 0.457974 0.266477
vt 0.447043 0.239411
vt 0.465519 0.269434
vt 0.681856 0.421420
vt 0.685602 0.389102
vt 0.690132 0.392031
vt 0.544669 0.251817
vt 0.544070 0.280864
vt 0.611722 0.445574
vt 0.522017 0.425626
vt 0.580902 0.440825
vt 0.555667 0.435532
vt 0.677404 0.450100
vt 0.475756 0.202888
vt 0.451032 0.216667
vt 0.577931 0.252049
vt 0.598108 0.281584
vt 0.596003 0.252396
vt 0.614106 0.283299
vt 0.599608 0.343035
vt 0.578225 0.342672
vt 0.502447 0.263163
vt 0.591331 0.376326
vt 0.667732 0.472514
vt 0.550268 0.457599
vt 0.609010 0.468428
vt 0.514487 0.447547
vt 0.516619 0.280698
vt 0.516445 0.296743
vt 0.632313 0.470595
vt 0.529736 0.451412
vt 0.540362 0.364339
vt 0.620821 0.380116
vt 0.627034 0.252128
vt 0.490034 0.275593
vt 0.677073 0.473132
vt 0.576849 0.463532
vt 0.503205 0.444170
vt 0.517268 0.251689
vt 0.516288 0.342674
s 1
usemtl RockSet2
f 12/1/12 28/2/28 19/3/19
f 20/4/20 2/5/2 21/6/21
f 1/7/1 33/8/33 24/9/24
f 27/10/27 6/11/6 26/12/26
f 22/13/22 5/14/5 23/15/23
f 25/16/25 31/17/31 7/18/7
f 21/6/21 14/19/14 10/20/10
f 8/21/8 18/22/18 3/23/3
f 24/9/24 15/24/15 26/12/26
f 27/10/27 14/25/14 25/16/25
f 8/21/8 3/23/3 34/26/34
f 28/2/28 5/14/5 30/27/30
f 18/22/18 31/28/31 32/29/32
f 7/30/7 18/22/18 8/21/8
f 29/31/29 18/32/18 32/33/32
f 17/34/17 20/4/20 9/35/9
f 7/18/7 27/10/27 25/16/25
f 1/7/1 26/12/26 6/11/6
f 22/13/22 12/1/12 11/36/11
f 16/37/16 26/12/26 15/24/15
f 24/9/24 35/38/35 13/39/13
f 20/4/20 10/20/10 9/35/9
f 29/31/29 30/27/30 18/32/18
f 17/40/17 28/2/28 29/31/29
f 5/41/5 18/22/18 30/42/30
f 29/43/29 4/44/4 20/4/20
f 32/45/32 2/46/2 4/44/4
f 21/6/21 31/47/31 25/48/25
f 1/49/1 8/21/8 34/26/34
f 22/13/22 35/38/35 33/8/33
f 34/50/34 22/13/22 33/8/33
f 17/40/17 45/51/45 19/3/19
f 40/52/40 15/24/15 13/39/13
f 35/38/35 40/52/40 13/39/13
f 38/53/38 35/38/35 11/36/11
f 43/54/43 14/25/14 16/37/16
f 36/55/36 17/34/17 9/35/9
f 10/20/10 36/55/36 9/35/9
f 12/1/12 38/53/38 11/36/11
f 14/19/14 37/56/37 10/20/10
f 19/3/19 39/57/39 12/1/12
f 42/58/42 16/37/16 15/24/15
f 12/1/12 23/15/23 28/2/28
f 20/4/20 4/44/4 2/5/2
f 1/7/1 34/50/34 33/8/33
f 27/10/27 8/59/8 6/11/6
f 22/13/22 3/60/3 5/14/5
f 21/6/21 25/48/25 14/19/14
f 24/9/24 13/39/13 15/24/15
f 27/10/27 16/37/16 14/25/14
f 28/2/28 23/15/23 5/14/5
f 18/22/18 7/30/7 31/28/31
f 17/34/17 29/43/29 20/4/20
f 7/18/7 8/59/8 27/10/27
f 1/7/1 24/9/24 26/12/26
f 22/13/22 23/15/23 12/1/12
f 16/37/16 27/10/27 26/12/26
f 24/9/24 33/8/33 35/38/35
f 20/4/20 21/6/21 10/20/10
f 29/31/29 28/2/28 30/27/30
f 17/40/17 19/3/19 28/2/28
f 5/41/5 3/23/3 18/22/18
f 29/43/29 32/45/32 4/44/4
f 32/45/32 31/61/31 2/46/2
f 21/6/21 2/5/2 31/47/31
f 1/49/1 6/62/6 8/21/8
f 22/13/22 11/36/11 35/38/35
f 34/50/34 3/60/3 22/13/22
f 17/40/17 44/63/44 45/51/45
f 40/52/40 42/58/42 15/24/15
f 35/38/35 46/64/46 40/52/40
f 38/53/38 46/64/46 35/38/35
f 43/54/43 41/65/41 14/25/14
f 36/55/36 44/66/44 17/34/17
f 10/20/10 37/56/37 36/55/36
f 12/1/12 39/57/39 38/53/38
f 14/19/14 41/67/41 37/56/37
f 19/3/19 45/51/45 39/57/39
f 42/58/42 43/54/43 16/37/16
