# Blender 5.1.1
# www.blender.org
mtllib rock_lp_10.mtl
o rock_lp_10
v -1.666586 -0.279881 -3.083151
v -0.802911 -0.278552 -2.547229
v -1.210832 -0.279698 -3.517187
v -0.575849 -0.278790 -2.699043
v -0.957025 -0.279083 -3.467256
v -1.495268 -0.278752 -2.778562
v -1.469375 2.288278 -3.022125
v -0.868183 2.371828 -2.692596
v -1.157463 2.375473 -3.333972
v -0.757837 2.338811 -2.765116
v -0.988142 2.360099 -3.316887
v -0.978768 1.062902 -3.380466
v -0.723118 1.042768 -2.743107
v -0.843654 1.038160 -2.672556
v -1.567577 0.999305 -3.061162
v -1.184474 1.062427 -3.420381
v -1.419774 0.965118 -2.806694
v -1.465645 -0.278968 -2.664041
v -1.449471 2.323151 -2.859941
v -1.249726 2.377291 -2.792140
v -1.334968 1.037264 -2.744061
v -1.314091 2.369439 -2.858547
v -1.542386 0.999836 -2.829820
v -1.634203 -0.279246 -2.812168
v -0.834448 1.001130 -2.619787
v -0.658503 0.997316 -2.712554
v -0.809506 -0.285444 -3.340456
v -1.396265 1.034087 -2.664633
v -0.731107 0.495097 -3.124238
v -0.902524 -0.283703 -3.353929
v -0.828873 0.539146 -3.118669
v -0.730838 1.687906 -2.760447
v -0.865558 1.707878 -2.676241
v -1.173367 1.719600 -3.377637
v -0.987161 1.697245 -3.341675
v -1.517188 1.643911 -3.029866
v -1.292347 1.707278 -2.768101
v -1.497217 1.661374 -2.856658
v -1.366932 1.667278 -2.832621
v -1.524999 1.631705 -2.820841
v -1.551920 1.606359 -3.052974
v -0.889444 2.309324 -3.028316
v -0.874850 2.354297 -3.082830
v -0.996620 2.354178 -2.982400
v -0.869825 1.692970 -3.075607
vn -0.9388 0.0784 -0.3354
vn 0.2037 0.0526 0.9776
vn -0.2790 0.0746 -0.9574
vn 0.9467 0.0403 0.3196
vn 0.6098 0.0613 -0.7902
vn -0.6935 0.0583 0.7181
vn -0.8272 0.4825 -0.2878
vn 0.1892 0.6850 0.7035
vn -0.2481 0.6763 -0.6936
vn 0.8295 0.5299 0.1763
vn 0.4848 0.6118 -0.6250
vn 0.6299 0.0625 -0.7742
vn 0.8857 0.4532 0.1009
vn 0.1521 0.5265 0.8365
vn -0.9368 0.0543 -0.3456
vn -0.2751 0.0658 -0.9591
vn -0.6512 0.1496 0.7440
vn -0.6808 0.0618 0.7298
vn -0.6100 0.5583 0.5623
vn -0.3660 0.7109 0.6006
vn -0.4363 0.6972 0.5689
vn -0.3821 0.8263 0.4137
vn -0.7314 0.0341 0.6811
vn -0.7547 0.0675 0.6525
vn 0.1637 0.4574 0.8741
vn 0.8416 0.5042 0.1936
vn 0.5664 0.1667 -0.8071
vn -0.5630 0.6392 0.5239
vn 0.6218 0.2872 -0.7286
vn 0.6362 0.1545 -0.7559
vn 0.6556 0.2761 -0.7028
vn 0.9580 0.0338 0.2847
vn 0.1675 0.0237 0.9856
vn -0.2855 0.0762 -0.9553
vn 0.6243 0.0402 -0.7802
vn -0.8322 0.4978 -0.2441
vn -0.4538 0.0554 0.8894
vn -0.6604 0.5720 0.4865
vn -0.3956 0.0936 0.9136
vn -0.6102 0.4043 0.6813
vn -0.8787 0.3477 -0.3272
vn 0.8812 0.4625 0.0980
vn 0.7628 0.6456 0.0363
vn 0.1342 0.9908 -0.0189
vn 0.9206 0.0249 -0.3898
vt 0.147244 0.779372
vt 0.177621 0.854764
vt 0.180219 0.779287
vt 0.217302 0.853990
vt 0.236825 0.782262
vt 0.219108 0.779072
vt 0.074725 0.858740
vt 0.125881 0.782691
vt 0.070569 0.778250
vt 0.033585 0.786880
vt 0.059651 0.858074
vt 0.050434 0.780208
vt 0.148514 0.855267
vt 0.286009 0.852581
vt 0.287844 0.783925
vt 0.280464 0.208910
vt 0.314857 0.224686
vt 0.308639 0.242242
vt 0.702368 0.107439
vt 0.839943 0.028296
vt 0.837121 0.092191
vt 0.687769 0.237675
vt 0.830811 0.228586
vt 0.829476 0.257752
vt 0.678708 0.347211
vt 0.825215 0.348720
vt 0.824360 0.364176
vt 0.680288 0.306486
vt 0.826888 0.318719
vt 0.700956 0.129884
vt 0.835677 0.122969
vt 0.690132 0.214108
vt 0.695932 0.136765
vt 0.750028 0.185536
vt 0.688964 0.034034
vt 0.696527 0.019717
vt 0.698576 0.035004
vt 0.677398 0.332631
vt 0.048707 0.775615
vt 0.692380 0.123726
vt 0.760193 0.174038
vt 0.831436 0.214952
vt 0.253419 0.236394
vt 0.297655 0.853940
vt 0.238975 0.707592
vt 0.288084 0.705731
vt 0.120627 0.709210
vt 0.144828 0.708727
vt 0.018282 0.710682
vt 0.037242 0.711468
vt 0.071896 0.772033
vt 0.063915 0.711438
vt 0.223100 0.707716
vt 0.300591 0.781981
vt 0.262575 0.261357
vt 0.266744 0.174829
vt 0.290050 0.198247
vt 0.297106 0.201993
vt 0.184153 0.854368
vt 0.249417 0.227078
vt 0.247207 0.250999
vt 0.231870 0.853999
vt 0.129640 0.855706
vt 0.043665 0.857759
vt 0.695462 0.107448
vt 0.831924 0.204092
vt 0.840280 0.016528
vt 0.302586 0.704917
vt 0.254706 0.183638
s 1
usemtl RockSet2
f 35/1/35 43/2/43 45/3/45
f 10/4/10 33/5/33 32/6/32
f 7/7/7 34/8/34 36/9/36
f 39/10/39 19/11/19 38/12/38
f 34/8/34 11/13/11 35/1/35
f 33/5/33 20/14/20 37/15/37
f 44/16/44 11/17/11 9/18/9
f 25/19/25 18/20/18 2/21/2
f 16/22/16 5/23/5 3/24/3
f 17/25/17 24/26/24 6/27/6
f 15/28/15 3/24/3 1/29/1
f 26/30/26 2/21/2 4/31/4
f 12/32/12 13/33/13 31/34/31
f 21/35/21 17/36/17 28/37/28
f 15/28/15 24/26/24 23/38/23
f 36/9/36 40/39/40 38/12/38
f 26/30/26 31/34/31 13/33/13
f 13/40/13 25/19/25 26/30/26
f 4/31/4 29/41/29 26/30/26
f 17/36/17 18/20/18 28/37/28
f 25/19/25 21/35/21 28/37/28
f 29/41/29 30/42/30 31/34/31
f 5/23/5 31/34/31 30/42/30
f 22/43/22 44/16/44 9/18/9
f 7/7/7 38/12/38 19/11/19
f 22/44/22 37/15/37 20/14/20
f 14/45/14 37/15/37 21/46/21
f 16/47/16 35/1/35 12/48/12
f 17/49/17 40/39/40 23/50/23
f 41/51/41 16/47/16 15/52/15
f 32/6/32 14/45/14 13/53/13
f 45/3/45 32/6/32 13/53/13
f 41/51/41 23/50/23 40/39/40
f 39/54/39 21/46/21 37/15/37
f 39/10/39 38/12/38 40/39/40
f 41/51/41 36/9/36 34/8/34
f 22/43/22 9/18/9 7/55/7
f 44/16/44 10/56/10 42/57/42
f 42/57/42 43/58/43 44/16/44
f 43/2/43 42/59/42 45/3/45
f 42/59/42 32/6/32 45/3/45
f 20/60/20 44/16/44 22/43/22
f 19/61/19 22/43/22 7/55/7
f 35/1/35 11/13/11 43/2/43
f 10/4/10 8/62/8 33/5/33
f 7/7/7 9/63/9 34/8/34
f 39/10/39 22/64/22 19/11/19
f 34/8/34 9/63/9 11/13/11
f 33/5/33 8/62/8 20/14/20
f 44/16/44 43/58/43 11/17/11
f 25/19/25 28/37/28 18/20/18
f 16/22/16 12/32/12 5/23/5
f 17/25/17 23/38/23 24/26/24
f 15/28/15 16/22/16 3/24/3
f 26/30/26 25/19/25 2/21/2
f 15/28/15 1/29/1 24/26/24
f 36/9/36 41/51/41 40/39/40
f 26/30/26 29/41/29 31/34/31
f 13/40/13 14/65/14 25/19/25
f 4/31/4 27/66/27 29/41/29
f 17/36/17 6/67/6 18/20/18
f 25/19/25 14/65/14 21/35/21
f 29/41/29 27/66/27 30/42/30
f 5/23/5 12/32/12 31/34/31
f 7/7/7 36/9/36 38/12/38
f 22/44/22 39/54/39 37/15/37
f 14/45/14 33/5/33 37/15/37
f 16/47/16 34/8/34 35/1/35
f 17/49/17 39/10/39 40/39/40
f 41/51/41 34/8/34 16/47/16
f 32/6/32 33/5/33 14/45/14
f 13/53/13 12/48/12 45/3/45
f 12/48/12 35/1/35 45/3/45
f 41/51/41 15/52/15 23/50/23
f 39/54/39 17/68/17 21/46/21
f 44/16/44 8/69/8 10/56/10
f 42/59/42 10/4/10 32/6/32
f 20/60/20 8/69/8 44/16/44
