# Blender 5.1.1
# www.blender.org
mtllib rock_lp_07.mtl
o rock_lp_07
v 0.207708 1.576108 -0.063351
v -0.416577 1.623706 -0.632198
v 0.246920 1.623706 -0.495485
v -0.030277 1.623706 -0.022927
v 0.252576 1.074841 0.103396
v 0.414413 -0.286933 -1.177247
v -0.319023 -0.286933 -0.958051
v -0.416577 -0.286933 -0.632198
v -0.030277 -0.286933 -0.022927
v 0.594983 -0.286933 -0.495348
v 0.666932 -0.286933 -0.946131
v 0.246407 -0.286933 -0.087711
v 0.422838 1.029127 -0.183469
v 0.279523 1.118028 -0.411522
v 0.246407 1.118028 -0.087711
v 0.666932 1.118028 -0.946131
v 0.567505 0.961154 -0.297393
v -0.030277 1.118028 -0.022927
v -0.417050 1.199342 -0.634962
v -0.319023 1.118028 -0.958051
v 0.414413 1.118028 -1.177247
v 0.650343 0.909106 -0.198835
v -0.107741 1.074702 0.064672
v 0.249997 0.521280 0.023520
v -0.319023 0.185992 -0.958051
v 0.439277 0.434230 -1.154491
v 0.642069 0.434230 -0.968887
v -0.055323 0.398982 -0.031410
v -0.413755 0.389143 -0.644534
v 0.691663 0.419384 -0.396958
v 0.650244 0.445408 -0.446237
v -0.539059 0.339407 -0.593791
v -0.134054 0.297193 0.064101
v -0.455346 0.325990 -0.225902
v -0.325371 -0.286933 -0.280153
v -0.245608 0.391265 -0.298320
v 0.623418 1.047799 -0.926974
v 0.396738 1.062701 -1.134441
v 0.434165 1.660392 -0.262399
v 0.538516 1.689160 -0.360103
v 0.626368 1.689160 -0.910523
v 0.402479 1.689160 -1.115435
v 0.263951 1.710543 -0.506812
v -0.247802 1.689160 -0.921091
vn 0.4483 0.7668 0.4594
vn 0.9025 0.3491 0.2521
vn 0.9260 0.3620 0.1072
vn 0.2163 0.0101 -0.9763
vn -0.6545 0.0169 -0.7558
vn 0.2519 0.0247 -0.9674
vn -0.8746 0.4730 -0.1066
vn -0.8566 0.4938 -0.1498
vn 0.9994 -0.0141 0.0325
vn 0.9242 -0.0854 0.3723
vn 0.9585 0.1021 -0.2663
vn 0.9318 -0.0127 -0.3627
vn 0.9211 0.0357 -0.3876
vn -0.2359 0.7323 0.6388
vn 0.2919 0.5010 0.8148
vn 0.5855 0.6959 0.4158
vn -0.7239 0.5522 0.4136
vn 0.6280 0.6684 0.3986
vn -0.0978 0.5148 0.8517
vn 0.9093 -0.2255 -0.3496
vn 0.1647 0.6423 -0.7486
vn 0.7261 0.6394 -0.2529
vn 0.2284 -0.2408 -0.9433
vn -0.4853 0.7008 -0.5228
vn 0.6366 0.4934 0.5927
vn -0.2754 0.6035 0.7483
vn -0.9958 0.0397 0.0822
vn -0.8039 0.5892 0.0807
vn 0.2258 0.5287 0.8182
vn -0.4006 0.6324 0.6631
vn -0.4930 0.4459 0.7471
vn 0.4819 -0.1397 0.8650
vn 0.3296 -0.1231 0.9361
vn -0.5451 0.5298 0.6497
vn -0.3363 0.2865 0.8971
vn 0.8785 -0.3051 -0.3677
vn -0.6843 0.0382 -0.7282
vn 0.1928 -0.3333 -0.9229
vn -0.9824 -0.1552 -0.1043
vn -0.8368 -0.2218 0.5006
vn -0.7766 0.4233 0.4666
vn -0.3932 0.8239 0.4082
vn -0.6555 -0.0353 -0.7544
vn -0.2217 -0.1851 0.9574
vt 0.641650 0.949787
vt 0.615654 0.935284
vt 0.619006 0.950973
vt 0.899220 0.779834
vt 0.820214 0.859216
vt 0.902925 0.857288
vt 0.975156 0.753320
vt 0.953066 0.707052
vt 0.976446 0.713701
vt 0.977486 0.523577
vt 0.899767 0.522595
vt 0.977613 0.515376
vt 0.938607 0.778153
vt 0.939800 0.855562
vt 0.694034 0.941094
vt 0.667682 0.932888
vt 0.665468 0.949843
vt 0.977401 0.673026
vt 0.914415 0.422812
vt 0.982109 0.403617
vt 0.980754 0.420100
vt 0.919840 0.334799
vt 0.983455 0.304899
vt 0.983279 0.339185
vt 0.919940 0.303379
vt 0.981819 0.227227
vt 0.915143 0.104753
vt 0.976770 0.074951
vt 0.978657 0.103198
vt 0.915073 0.189668
vt 0.979210 0.188082
vt 0.915287 0.033004
vt 0.978643 0.023903
vt 0.914486 0.452648
vt 0.980722 0.455319
vt 0.647187 0.980056
vt 0.696794 0.929596
vt 0.767421 0.959928
vt 0.900108 0.587276
vt 0.978345 0.597256
vt 0.977041 0.633725
vt 0.956149 0.635112
vt 0.979943 0.775081
vt 0.914399 0.400888
vt 0.910155 0.335080
vt 0.658749 0.870017
vt 0.735381 0.864477
vt 0.578293 0.873652
vt 0.602259 0.945000
vt 0.807270 0.955136
vt 0.779369 0.864172
vt 0.910239 0.304395
vt 0.914905 0.229529
vt 0.896447 0.716419
vt 0.894573 0.671212
vt 0.952766 0.675563
vt 0.983495 0.852490
vt 0.940146 0.961739
vt 0.987331 0.965980
vt 0.904706 0.958031
vt 0.511480 0.788764
vt 0.583943 0.765513
vt 0.548125 0.838210
vt 0.520514 0.836962
vt 0.504301 0.781755
vt 0.488408 0.713358
vt 0.561388 0.734561
vt 0.484837 0.809598
vt 0.473252 0.798110
vt 0.463437 0.736369
vt 0.823257 0.783504
vt 0.915205 0.071318
vt 0.695977 0.865918
vt 0.585128 0.872488
vt 0.899093 0.756999
vt 0.899121 0.622609
s 1
usemtl RockSet2
f 13/1/1 22/2/2 17/3/3
f 6/4/4 25/5/5 26/6/6
f 25/7/5 32/8/7 29/9/8
f 30/10/9 10/11/10 31/12/11
f 11/13/12 26/6/6 27/14/13
f 18/15/14 5/16/15 15/17/16
f 32/8/7 36/18/17 29/9/8
f 5/16/15 13/1/1 15/17/16
f 13/19/1 40/20/18 39/21/19
f 16/22/20 42/23/21 41/24/22
f 21/25/23 44/26/24 42/23/21
f 18/27/14 1/28/25 4/29/26
f 44/26/24 19/30/27 2/31/28
f 19/30/27 4/29/26 2/31/28
f 40/20/18 16/22/20 41/24/22
f 1/28/25 14/32/29 3/33/30
f 14/34/29 39/21/19 3/35/30
f 14/36/29 15/17/16 13/1/1
f 23/37/31 18/15/14 19/38/27
f 12/39/32 30/10/9 24/40/33
f 28/41/34 33/42/35 24/40/33
f 27/14/13 10/43/10 11/13/12
f 16/22/20 17/44/3 37/45/36
f 23/37/31 24/46/33 5/16/15
f 24/46/33 22/2/2 5/16/15
f 36/47/17 23/37/31 19/38/27
f 37/45/36 21/25/23 16/22/20
f 22/2/2 31/48/11 17/49/3
f 20/50/37 29/51/8 19/38/27
f 21/25/23 38/52/38 20/53/37
f 25/7/5 8/54/39 32/8/7
f 32/8/7 35/55/40 34/56/41
f 33/42/35 12/39/32 24/40/33
f 36/47/17 19/38/27 29/51/8
f 35/55/40 33/42/35 34/56/41
f 33/42/35 36/18/17 34/56/41
f 31/57/11 37/58/36 17/59/3
f 26/6/6 20/50/37 38/60/38
f 37/58/36 26/6/6 38/60/38
f 3/61/30 2/62/28 4/63/26
f 1/64/25 3/61/30 4/63/26
f 43/65/42 42/66/21 44/67/24
f 39/68/19 40/69/18 43/65/42
f 3/61/30 43/65/42 44/67/24
f 39/68/19 43/65/42 3/61/30
f 40/69/18 41/70/22 43/65/42
f 6/4/4 7/71/43 25/5/5
f 11/13/12 6/4/4 26/6/6
f 18/15/14 23/37/31 5/16/15
f 32/8/7 34/56/41 36/18/17
f 5/16/15 22/2/2 13/1/1
f 13/19/1 17/44/3 40/20/18
f 16/22/20 21/25/23 42/23/21
f 21/25/23 20/53/37 44/26/24
f 18/27/14 15/72/16 1/28/25
f 44/26/24 20/53/37 19/30/27
f 19/30/27 18/27/14 4/29/26
f 40/20/18 17/44/3 16/22/20
f 1/28/25 15/72/16 14/32/29
f 14/34/29 13/19/1 39/21/19
f 12/39/32 10/11/10 30/10/9
f 27/14/13 31/57/11 10/43/10
f 23/37/31 28/73/34 24/46/33
f 24/46/33 30/74/9 22/2/2
f 36/47/17 28/73/34 23/37/31
f 37/45/36 38/52/38 21/25/23
f 22/2/2 30/74/9 31/48/11
f 20/50/37 25/5/5 29/51/8
f 25/7/5 7/75/43 8/54/39
f 32/8/7 8/54/39 35/55/40
f 33/42/35 9/76/44 12/39/32
f 35/55/40 9/76/44 33/42/35
f 33/42/35 28/41/34 36/18/17
f 31/57/11 27/14/13 37/58/36
f 26/6/6 25/5/5 20/50/37
f 37/58/36 27/14/13 26/6/6
f 3/61/30 44/67/24 2/62/28
f 43/65/42 41/70/22 42/66/21
