# Blender 5.1.1
# www.blender.org
mtllib rock_lp_06.mtl
o rock_lp_06
v 1.450432 2.160192 -2.231927
v 2.301060 2.063887 -1.995028
v 1.574358 1.651688 -2.916843
v 2.771964 1.920224 -2.904621
v 2.106185 2.059139 -3.468885
v 1.232339 1.661088 -2.195601
v 1.386055 1.533446 -3.097676
v 2.110121 1.445363 -3.546569
v 1.243098 -0.368029 -2.192637
v 2.315216 -0.368029 -1.916121
v 1.127883 -0.368029 -3.114975
v 2.833684 -0.368029 -2.919110
v 2.095999 -0.368029 -3.541272
v 1.418075 2.185209 -2.665381
v 1.585439 2.160306 -3.232783
v 1.163173 1.672122 -2.833695
v 1.713736 2.217105 -2.837328
v 1.356904 1.609100 -3.217423
v 2.217193 2.078685 -2.731702
v 1.750027 2.155602 -1.977038
v 1.742650 1.661088 -1.901802
v 1.753810 -0.368029 -1.898735
v 1.374774 1.698677 -2.294379
v 1.345193 1.722397 -2.711747
v 1.065241 -0.368029 -2.886881
v 2.792220 0.805329 -2.772601
v 2.103060 0.558856 -3.543921
v 2.388189 0.692120 -1.993432
v 1.122817 0.666718 -3.113946
v 1.237718 0.666718 -2.194119
v 1.748230 0.666718 -1.900269
v 1.058833 0.666718 -2.896593
v 2.960075 0.789544 -2.775022
v 2.580509 0.642627 -1.765092
v 2.124396 0.576880 -1.730174
v 1.990258 0.631453 -1.936481
v 2.505966 0.702952 -3.092981
v 2.504069 0.666798 -3.184142
v 2.380529 -0.368029 -3.301299
vn 0.8550 0.4899 -0.1700
vn 0.1859 0.0461 -0.9815
vn 0.2024 0.6086 -0.7673
vn -0.6737 0.6400 0.3695
vn -0.2325 0.9622 -0.1419
vn -0.6855 0.6702 -0.2844
vn -0.8981 0.2523 -0.3602
vn -0.5505 0.7338 -0.3981
vn -0.2479 0.0891 0.9647
vn -0.2009 0.6916 0.6938
vn -0.2825 -0.0549 0.9577
vn -0.1163 0.2553 0.9599
vn -0.1856 0.0005 0.9826
vn 0.6016 0.7833 -0.1567
vn 0.7323 0.2302 -0.6408
vn 0.6232 0.5704 -0.5350
vn 0.2711 0.7409 0.6145
vn 0.8087 0.5701 -0.1446
vn -0.7511 -0.0030 -0.6601
vn -0.9922 0.0583 -0.1100
vn -0.7261 0.0571 -0.6852
vn 0.1491 -0.0048 -0.9888
vn -0.7995 0.0018 0.6007
vn -0.8084 0.0072 0.5886
vn 0.2376 0.9709 -0.0308
vn -0.6833 0.5490 0.4813
vn -0.5541 0.7588 -0.3423
vn -0.7273 0.6391 -0.2501
vn 0.5005 0.5838 0.6393
vn -0.8471 0.5305 0.0301
vn -0.7747 0.6097 -0.1675
vn -0.6168 0.7297 0.2950
vn -0.9999 -0.0052 -0.0130
vn 0.9543 -0.1122 -0.2768
vn 0.4930 0.4522 0.7433
vn -0.3011 0.4462 0.8428
vn 0.5253 -0.2284 0.8197
vn 0.6580 0.0074 -0.7530
vn 0.1512 0.0007 -0.9885
vt 0.622166 0.616036
vt 0.533741 0.553831
vt 0.609053 0.526266
vt 0.770109 0.571522
vt 0.705378 0.535120
vt 0.748426 0.536095
vt 0.525139 0.468799
vt 0.602294 0.474607
vt 0.823393 0.615774
vt 0.770234 0.617498
vt 0.194753 0.024933
vt 0.236426 0.140196
vt 0.213253 0.143238
vt 0.418981 0.149626
vt 0.469957 0.144398
vt 0.464628 0.157140
vt 0.283517 0.155290
vt 0.420631 0.137751
vt 0.015772 0.028134
vt 0.064945 0.158373
vt 0.040693 0.161878
vt 0.534332 0.145610
vt 0.675021 0.026117
vt 0.669208 0.144888
vt 0.126664 0.026027
vt 0.147975 0.148673
vt 0.671422 0.588250
vt 0.159320 0.257396
vt 0.114921 0.291427
vt 0.100745 0.263336
vt 0.717719 0.660753
vt 0.060005 0.269958
vt 0.075271 0.299369
vt 0.044349 0.273241
vt 0.715708 0.446616
vt 0.671302 0.491525
vt 0.645612 0.810253
vt 0.614105 0.776738
vt 0.739879 0.736182
vt 0.773462 0.690617
vt 0.157893 0.274361
vt 0.219758 0.258871
vt 0.746808 0.465592
vt 0.780102 0.494507
vt 0.817866 0.538725
vt 0.042721 0.027600
vt 0.661898 0.241359
vt 0.530344 0.238613
vt 0.546458 0.702912
vt 0.415219 0.022698
vt 0.292130 0.130865
vt 0.255491 0.109541
vt 0.287226 0.023463
vt 0.484870 0.023127
vt 0.534591 0.023926
vt 0.504703 0.667994
s 1
usemtl RockSet2
f 4/1/1 8/2/2 5/3/3
f 1/4/4 17/5/5 14/6/6
f 5/3/3 18/7/7 15/8/8
f 1/4/4 21/9/9 20/10/10
f 22/11/11 36/12/12 31/13/13
f 26/14/14 38/15/15 37/16/16
f 28/17/17 33/18/18 26/14/14
f 11/19/19 32/20/20 29/21/21
f 27/22/22 11/23/19 29/24/21
f 9/25/23 31/13/13 30/26/24
f 5/3/3 17/5/5 19/27/25
f 6/28/26 24/29/27 16/30/28
f 19/27/25 4/1/1 5/3/3
f 2/31/29 4/1/1 19/27/25
f 7/32/30 3/33/31 18/34/7
f 30/26/24 16/30/28 32/20/20
f 18/35/7 17/5/5 15/36/8
f 20/10/10 19/27/25 17/5/5
f 36/37/12 28/38/17 2/31/29
f 21/39/9 2/31/29 20/40/10
f 23/41/32 6/28/26 21/42/9
f 14/6/6 3/43/31 24/44/27
f 23/45/32 14/6/6 24/44/27
f 16/30/28 3/33/31 7/32/30
f 25/46/33 30/26/24 32/20/20
f 30/26/24 21/42/9 6/28/26
f 27/22/22 18/47/7 8/48/2
f 7/32/30 32/20/20 16/30/28
f 2/31/29 26/49/14 4/1/1
f 26/49/14 8/2/2 4/1/1
f 29/21/21 7/32/30 18/34/7
f 12/50/34 38/15/15 33/18/18
f 34/51/35 12/50/34 33/18/18
f 28/17/17 35/52/36 34/51/35
f 35/52/36 10/53/37 34/51/35
f 36/12/12 22/11/11 35/52/36
f 36/37/12 2/31/29 21/39/9
f 37/16/16 38/15/15 8/48/2
f 38/15/15 27/22/22 8/48/2
f 39/54/38 27/22/22 38/15/15
f 28/38/17 26/49/14 2/31/29
f 3/43/31 17/5/5 18/35/7
f 31/13/13 36/12/12 21/42/9
f 1/4/4 20/10/10 17/5/5
f 5/3/3 8/2/2 18/7/7
f 1/4/4 23/45/32 21/9/9
f 26/14/14 33/18/18 38/15/15
f 28/17/17 34/51/35 33/18/18
f 11/19/19 25/46/33 32/20/20
f 27/22/22 13/55/39 11/23/19
f 9/25/23 22/11/11 31/13/13
f 5/3/3 15/36/8 17/5/5
f 6/28/26 23/41/32 24/29/27
f 30/26/24 6/28/26 16/30/28
f 20/10/10 2/31/29 19/27/25
f 14/6/6 17/5/5 3/43/31
f 23/45/32 1/4/4 14/6/6
f 16/30/28 24/29/27 3/33/31
f 25/46/33 9/25/23 30/26/24
f 30/26/24 31/13/13 21/42/9
f 27/22/22 29/24/21 18/47/7
f 7/32/30 29/21/21 32/20/20
f 26/49/14 37/56/16 8/2/2
f 12/50/34 39/54/38 38/15/15
f 34/51/35 10/53/37 12/50/34
f 28/17/17 36/12/12 35/52/36
f 35/52/36 22/11/11 10/53/37
f 39/54/38 13/55/39 27/22/22
