# Blender 5.1.1
# www.blender.org
mtllib tree_lp_02_pine.mtl
o tree_lp_02_pine
v -2.220000 0.000000 0.000000
v -2.310000 0.000000 -0.155885
v -2.490000 0.000000 -0.155885
v -2.580000 0.000000 -0.000000
v -2.490000 0.000000 0.155885
v -2.310000 0.000000 0.155885
v -2.290000 1.280000 0.000000
v -2.345000 1.280000 -0.095263
v -2.455000 1.280000 -0.095263
v -2.510000 1.280000 -0.000000
v -2.455000 1.280000 0.095263
v -2.345000 1.280000 0.095263
v -1.460668 0.450000 -0.141966
v -1.836177 0.450000 -0.764594
v -2.541966 0.450000 -0.939333
v -3.164594 0.450000 -0.563823
v -3.339333 0.450000 0.141966
v -2.963823 0.450000 0.764594
v -2.258034 0.450000 0.939333
v -1.635406 0.450000 0.563823
v -2.400000 1.750000 0.000000
v -1.786182 1.050000 -0.376335
v -2.232074 1.050000 -0.700144
v -2.776335 1.050000 -0.613818
v -3.100144 1.050000 -0.167926
v -3.013818 1.050000 0.376335
v -2.567926 1.050000 0.700144
v -2.023665 1.050000 0.613818
v -1.699857 1.050000 0.167926
v -2.400000 2.180000 0.000000
v -1.934922 1.580000 -0.118754
v -2.155112 1.580000 -0.412831
v -2.518754 1.580000 -0.465078
v -2.812832 1.580000 -0.244888
v -2.865078 1.580000 0.118754
v -2.644888 1.580000 0.412831
v -2.281246 1.580000 0.465078
v -1.987169 1.580000 0.244888
v -2.400000 2.580000 0.000000
vn 0.8651 0.0473 -0.4994
vn -0.0000 0.0473 -0.9989
vn -0.8651 0.0473 -0.4994
vn -0.8651 0.0473 0.4994
vn -0.0000 0.0473 0.9989
vn 0.8651 0.0473 0.4994
vn -0.0000 -1.0000 -0.0000
vn -0.0000 1.0000 -0.0000
vn 0.7097 0.5596 -0.4280
vn 0.1992 0.5596 -0.8045
vn -0.4280 0.5596 -0.7097
vn -0.8045 0.5596 -0.1992
vn -0.7097 0.5596 0.4280
vn -0.1992 0.5596 0.8045
vn 0.4280 0.5596 0.7097
vn 0.8045 0.5596 0.1992
vn 0.5064 0.5073 -0.6973
vn -0.1350 0.5073 -0.8511
vn -0.6973 0.5073 -0.5064
vn -0.8511 0.5073 0.1350
vn -0.5064 0.5073 0.6973
vn 0.1350 0.5073 0.8511
vn 0.6973 0.5073 0.5064
vn 0.8511 0.5073 -0.1350
vn 0.7318 0.4054 -0.5479
vn 0.1300 0.4054 -0.9049
vn -0.5479 0.4054 -0.7318
vn -0.9049 0.4054 -0.1300
vn -0.7318 0.4054 0.5479
vn -0.1300 0.4054 0.9049
vn 0.5479 0.4054 0.7318
vn 0.9049 0.4054 0.1300
vt 0.132812 0.015625
vt 0.242188 0.015625
vt 0.242188 0.984375
vt 0.132812 0.984375
vt 0.382812 0.015625
vt 0.492188 0.015625
vt 0.492188 0.984375
vt 0.382812 0.984375
vt 0.257812 0.015625
vt 0.367188 0.015625
vt 0.367188 0.984375
vt 0.257812 0.984375
vt 0.507812 0.015625
vt 0.617188 0.015625
vt 0.617188 0.984375
vt 0.507812 0.984375
s 0
usemtl lp_tree_bark_dark
f 1/1/1 2/2/1 8/3/1 7/4/1
f 2/1/2 3/2/2 9/3/2 8/4/2
f 3/1/3 4/2/3 10/3/3 9/4/3
f 4/1/4 5/2/4 11/3/4 10/4/4
f 5/1/5 6/2/5 12/3/5 11/4/5
f 6/1/6 1/2/6 7/3/6 12/4/6
f 6/1/7 5/2/7 4/3/7 3/4/7 2/1/7 1/2/7
f 7/1/8 8/2/8 9/3/8 10/4/8 11/1/8 12/2/8
usemtl lp_tree_leaf_green
f 22/9/17 23/10/17 30/11/17
f 23/9/18 24/10/18 30/11/18
f 24/9/19 25/10/19 30/11/19
f 25/9/20 26/10/20 30/11/20
f 26/9/21 27/10/21 30/11/21
f 27/9/22 28/10/22 30/11/22
f 28/9/23 29/10/23 30/11/23
f 29/9/24 22/10/24 30/11/24
f 29/9/7 28/10/7 27/11/7 26/12/7 25/9/7 24/10/7 23/11/7 22/12/7
usemtl lp_tree_leaf_dark
f 13/5/9 14/6/9 21/7/9
f 14/5/10 15/6/10 21/7/10
f 15/5/11 16/6/11 21/7/11
f 16/5/12 17/6/12 21/7/12
f 17/5/13 18/6/13 21/7/13
f 18/5/14 19/6/14 21/7/14
f 19/5/15 20/6/15 21/7/15
f 20/5/16 13/6/16 21/7/16
f 20/5/7 19/6/7 18/7/7 17/8/7 16/5/7 15/6/7 14/7/7 13/8/7
usemtl lp_tree_leaf_light
f 31/13/25 32/14/25 39/15/25
f 32/13/26 33/14/26 39/15/26
f 33/13/27 34/14/27 39/15/27
f 34/13/28 35/14/28 39/15/28
f 35/13/29 36/14/29 39/15/29
f 36/13/30 37/14/30 39/15/30
f 37/13/31 38/14/31 39/15/31
f 38/13/32 31/14/32 39/15/32
f 38/13/7 37/14/7 36/15/7 35/16/7 34/13/7 33/14/7 32/15/7 31/16/7
