# Blender 5.1.1
# www.blender.org
mtllib tree_lp_01_round.mtl
o tree_lp_01_round
v -3.813787 0.000000 -0.037747
v -3.913410 0.000000 -0.169122
v -4.078237 0.000000 -0.173144
v -4.184150 0.000000 -0.046786
v -4.151394 0.000000 0.114804
v -4.004635 0.000000 0.189943
v -3.854386 0.000000 0.122052
v -3.872591 1.150000 -0.025827
v -3.940754 1.150000 -0.115715
v -4.053531 1.150000 -0.118467
v -4.125997 1.150000 -0.032011
v -4.103585 1.150000 0.078550
v -4.003171 1.150000 0.129961
v -3.900370 1.150000 0.083509
v -4.000000 1.000000 0.000000
v -3.744998 1.000000 0.000000
v -3.841028 1.000000 -0.145425
v -4.000000 1.000000 -0.193453
v -4.173868 1.000000 -0.159051
v -4.248322 1.000000 -0.000000
v -4.150711 1.000000 0.137868
v -4.000000 1.000000 0.202952
v -3.820199 1.000000 0.164479
v -3.309114 1.396000 0.000000
v -3.512057 1.396000 -0.406881
v -4.000000 1.396000 -0.668060
v -4.542182 1.396000 -0.452109
v -4.666566 1.396000 -0.000000
v -4.518118 1.396000 0.432043
v -4.000000 1.396000 0.677057
v -3.490412 1.396000 0.424930
v -3.231069 1.828000 0.000000
v -3.382539 1.828000 -0.488485
v -4.000000 1.828000 -0.629813
v -4.506475 1.828000 -0.400682
v -4.818696 1.828000 -0.000000
v -4.612396 1.828000 0.484478
v -4.000000 1.828000 0.592239
v -3.477812 1.828000 0.413113
v -3.530645 2.238400 0.000000
v -3.708503 2.238400 -0.241631
v -4.000000 2.238400 -0.323699
v -4.321387 2.238400 -0.266407
v -4.455953 2.238400 -0.000000
v -4.276824 2.238400 0.229467
v -4.000000 2.238400 0.340263
v -3.668419 2.238400 0.274857
v -4.000000 2.440000 0.000000
vn 0.7959 0.0470 -0.6036
vn 0.0244 0.0470 -0.9986
vn -0.7655 0.0470 -0.6417
vn -0.9790 0.0470 0.1985
vn -0.4552 0.0470 0.8891
vn 0.4113 0.0470 0.9103
vn 0.9681 0.0470 0.2460
vn -0.0000 -1.0000 -0.0000
vn -0.0000 1.0000 -0.0000
vn 0.6198 -0.7094 -0.3355
vn 0.3023 -0.7133 -0.6324
vn -0.2255 -0.7301 -0.6450
vn -0.6529 -0.7270 -0.2124
vn -0.6307 -0.7267 0.2723
vn -0.2865 -0.7322 0.6179
vn 0.2724 -0.7128 0.6463
vn 0.6427 -0.7133 0.2797
vn 0.9003 -0.2499 -0.3564
vn 0.3405 -0.0980 -0.9351
vn -0.3883 0.1110 -0.9148
vn -0.8863 -0.0924 -0.4538
vn -0.8962 -0.2766 0.3469
vn -0.2979 0.0033 0.9546
vn 0.3838 0.0971 0.9183
vn 0.8872 -0.0869 0.4531
vn 0.7054 0.6333 -0.3182
vn 0.1910 0.5995 -0.7773
vn -0.2827 0.5022 -0.8172
vn -0.6980 0.5424 -0.4675
vn -0.6553 0.6674 0.3538
vn -0.1958 0.5720 0.7965
vn 0.2442 0.4620 0.8526
vn 0.7474 0.5167 0.4177
vn -0.3790 -0.8824 0.2790
vn -0.1472 -0.8396 0.5229
vn 0.0938 -0.8451 0.5263
vn 0.3962 -0.8961 0.2001
vn 0.3856 -0.8722 -0.3010
vn 0.1999 -0.8430 -0.4994
vn -0.1000 -0.8560 -0.5072
vn -0.3872 -0.9014 -0.1941
vt 0.007812 0.015625
vt 0.117188 0.015625
vt 0.117188 0.984375
vt 0.007812 0.984375
vt 0.257812 0.015625
vt 0.367188 0.015625
vt 0.367188 0.984375
vt 0.257812 0.984375
s 0
usemtl lp_tree_bark_warm
f 1/1/1 2/2/1 9/3/1 8/4/1
f 2/1/2 3/2/2 10/3/2 9/4/2
f 3/1/3 4/2/3 11/3/3 10/4/3
f 4/1/4 5/2/4 12/3/4 11/4/4
f 5/1/5 6/2/5 13/3/5 12/4/5
f 6/1/6 7/2/6 14/3/6 13/4/6
f 7/1/7 1/2/7 8/3/7 14/4/7
f 7/1/8 6/2/8 5/3/8 4/4/8 3/1/8 2/2/8 1/3/8
f 8/1/9 9/2/9 10/3/9 11/4/9 12/1/9 13/2/9 14/3/9
usemtl lp_tree_leaf_green
f 15/5/9 16/6/9 17/7/9
f 15/5/9 17/6/9 18/7/9
f 15/5/9 18/6/9 19/7/9
f 15/5/9 19/6/9 20/7/9
f 15/5/9 20/6/9 21/7/9
f 15/5/9 21/6/9 22/7/9
f 15/5/9 22/6/9 23/7/9
f 15/5/9 23/6/9 16/7/9
f 16/5/10 17/6/10 25/7/10 24/8/10
f 17/5/11 18/6/11 26/7/11 25/8/11
f 18/5/12 19/6/12 27/7/12 26/8/12
f 19/5/13 20/6/13 28/7/13 27/8/13
f 20/5/14 21/6/14 29/7/14 28/8/14
f 21/5/15 22/6/15 30/7/15 29/8/15
f 22/5/16 23/6/16 31/7/16 30/8/16
f 23/5/17 16/6/17 24/7/17 31/8/17
f 24/5/18 25/6/18 33/7/18 32/8/18
f 25/5/19 26/6/19 34/7/19 33/8/19
f 26/5/20 27/6/20 35/7/20 34/8/20
f 27/5/21 28/6/21 36/7/21 35/8/21
f 28/5/22 29/6/22 37/7/22 36/8/22
f 29/5/23 30/6/23 38/7/23 37/8/23
f 30/5/24 31/6/24 39/7/24 38/8/24
f 31/5/25 24/6/25 32/7/25 39/8/25
f 32/5/26 33/6/26 41/7/26 40/8/26
f 33/5/27 34/6/27 42/7/27 41/8/27
f 34/5/28 35/6/28 43/7/28 42/8/28
f 35/5/29 36/6/29 44/7/29 43/8/29
f 36/5/30 37/6/30 45/7/30 44/8/30
f 37/5/31 38/6/31 46/7/31 45/8/31
f 38/5/32 39/6/32 47/7/32 46/8/32
f 39/5/33 32/6/33 40/7/33 47/8/33
f 40/5/34 48/6/34 41/7/34
f 41/5/35 48/6/35 42/7/35
f 42/5/36 48/6/36 43/7/36
f 43/5/37 48/6/37 44/7/37
f 44/5/38 48/6/38 45/7/38
f 45/5/39 48/6/39 46/7/39
f 46/5/40 48/6/40 47/7/40
f 47/5/41 48/6/41 40/7/41
