# Blender 5.1.1
# www.blender.org
mtllib tree_lp_05_dead.mtl
o tree_lp_05_dead
v 2.799001 0.000000 -0.019967
v 2.682209 0.000000 -0.182323
v 2.483208 0.000000 -0.162356
v 2.400999 0.000000 0.019967
v 2.517791 0.000000 0.182323
v 2.716792 0.000000 0.162356
v 2.699500 1.650000 -0.009983
v 2.641104 1.650000 -0.091162
v 2.541604 1.650000 -0.081178
v 2.500499 1.650000 0.009983
v 2.558896 1.650000 0.091162
v 2.658396 1.650000 0.081178
v 2.617053 0.720000 -0.078161
v 2.558233 0.661084 -0.034416
v 2.557133 0.683588 0.056891
v 2.615273 0.756412 0.069576
v 2.652306 0.778916 -0.013891
v 2.055969 1.180000 -0.147356
v 2.035382 1.159379 -0.132045
v 2.034997 1.167256 -0.100088
v 2.055346 1.192744 -0.095648
v 2.068307 1.200621 -0.124862
v 2.579252 1.050000 0.066854
v 2.634002 0.998605 0.033201
v 2.641762 1.018236 -0.046335
v 2.591808 1.081764 -0.061838
v 2.553174 1.101395 0.008117
v 3.172590 1.550000 0.203877
v 3.192144 1.531644 0.191858
v 3.194915 1.538656 0.163452
v 3.177074 1.561344 0.157915
v 3.163276 1.568355 0.182899
v 2.551279 1.380000 -0.025520
v 2.566706 1.345488 0.026933
v 2.628144 1.358670 0.042166
v 2.650688 1.401330 -0.000873
v 2.603183 1.414512 -0.042706
v 2.364055 1.920000 0.411648
v 2.369104 1.908705 0.428814
v 2.389211 1.913019 0.433800
v 2.396589 1.926981 0.419714
v 2.381042 1.931295 0.406024
vn 0.8107 0.0524 -0.5832
vn -0.0997 0.0524 -0.9936
vn -0.9104 0.0524 -0.4105
vn -0.8107 0.0524 0.5832
vn 0.0997 0.0524 0.9936
vn 0.9104 0.0524 0.4105
vn -0.0000 -1.0000 -0.0000
vn -0.0000 1.0000 -0.0000
vn -0.2343 -0.4178 -0.8778
vn -0.6964 -0.6987 0.1638
vn -0.2565 0.0366 0.9658
vn 0.4775 0.7718 0.4199
vn 0.4912 0.4909 -0.7195
vn 0.7566 -0.6328 0.1651
vn -0.7566 0.6328 -0.1651
vn 0.1510 -0.4239 0.8930
vn 0.7023 -0.7041 -0.1053
vn 0.3302 0.0294 -0.9435
vn -0.4511 0.7628 -0.4632
vn -0.5619 0.4827 0.6718
vn -0.7373 -0.6356 -0.2288
vn 0.7373 0.6356 0.2288
vn -0.9335 -0.3562 0.0402
vn -0.0706 -0.5957 0.8001
vn 0.8723 0.0313 0.4879
vn 0.5921 0.6582 -0.4649
vn -0.5240 0.4188 -0.7417
vn 0.3061 -0.7515 -0.5845
vn -0.3061 0.7515 0.5845
vt 0.882812 0.015625
vt 0.992188 0.015625
vt 0.992188 0.984375
vt 0.882812 0.984375
s 0
usemtl lp_tree_dead_bark
f 1/1/1 2/2/1 8/3/1 7/4/1
f 2/1/2 3/2/2 9/3/2 8/4/2
f 3/1/3 4/2/3 10/3/3 9/4/3
f 4/1/4 5/2/4 11/3/4 10/4/4
f 5/1/5 6/2/5 12/3/5 11/4/5
f 6/1/6 1/2/6 7/3/6 12/4/6
f 6/1/7 5/2/7 4/3/7 3/4/7 2/1/7 1/2/7
f 7/1/8 8/2/8 9/3/8 10/4/8 11/1/8 12/2/8
f 13/1/9 14/2/9 19/3/9 18/4/9
f 14/1/10 15/2/10 20/3/10 19/4/10
f 15/1/11 16/2/11 21/3/11 20/4/11
f 16/1/12 17/2/12 22/3/12 21/4/12
f 17/1/13 13/2/13 18/3/13 22/4/13
f 17/1/14 16/2/14 15/3/14 14/4/14 13/1/14
f 18/1/15 19/2/15 20/3/15 21/4/15 22/1/15
f 23/1/16 24/2/16 29/3/16 28/4/16
f 24/1/17 25/2/17 30/3/17 29/4/17
f 25/1/18 26/2/18 31/3/18 30/4/18
f 26/1/19 27/2/19 32/3/19 31/4/19
f 27/1/20 23/2/20 28/3/20 32/4/20
f 27/1/21 26/2/21 25/3/21 24/4/21 23/1/21
f 28/1/22 29/2/22 30/3/22 31/4/22 32/1/22
f 33/1/23 34/2/23 39/3/23 38/4/23
f 34/1/24 35/2/24 40/3/24 39/4/24
f 35/1/25 36/2/25 41/3/25 40/4/25
f 36/1/26 37/2/26 42/3/26 41/4/26
f 37/1/27 33/2/27 38/3/27 42/4/27
f 37/1/28 36/2/28 35/3/28 34/4/28 33/1/28
f 38/1/29 39/2/29 40/3/29 41/4/29 42/1/29
