# Blender 5.1.1
# www.blender.org
mtllib tree_lp_04_autumn.mtl
o tree_lp_04_autumn
v 1.120000 0.000000 0.000000
v 1.037168 0.000000 -0.172003
v 0.851045 0.000000 -0.214484
v 0.701787 0.000000 -0.095454
v 0.701787 0.000000 0.095454
v 0.851045 0.000000 0.214484
v 1.037168 0.000000 0.172003
v 1.040000 1.050000 0.000000
v 0.987289 1.050000 -0.109456
v 0.868847 1.050000 -0.136490
v 0.773864 1.050000 -0.060744
v 0.773864 1.050000 0.060744
v 0.868847 1.050000 0.136490
v 0.987289 1.050000 0.109456
v 0.921978 0.780000 0.076922
v 0.959841 0.727609 0.008613
v 0.915006 0.747621 -0.071599
v 0.849433 0.812379 -0.052864
v 0.853741 0.832391 0.038927
v 1.329615 1.240000 -0.086347
v 1.346181 1.217079 -0.116232
v 1.326565 1.225834 -0.151324
v 1.297877 1.254166 -0.143128
v 1.299762 1.262921 -0.102969
v 0.820000 0.980000 -0.020000
v 1.068077 0.980000 -0.020000
v 0.963898 0.980000 -0.151635
v 0.820000 0.980000 -0.188129
v 0.654101 0.980000 -0.171761
v 0.581787 0.980000 -0.020000
v 0.688303 0.980000 0.100474
v 0.820000 0.980000 0.162158
v 0.994661 0.980000 0.139777
v 1.431447 1.332000 -0.020000
v 1.251491 1.332000 -0.379807
v 0.820000 1.332000 -0.665671
v 0.308403 1.332000 -0.446605
v 0.244473 1.332000 -0.020000
v 0.343943 1.332000 0.376969
v 0.820000 1.332000 0.638959
v 1.283458 1.332000 0.366464
v 1.515383 1.716000 -0.020000
v 1.420626 1.716000 -0.495166
v 0.820000 1.716000 -0.601880
v 0.383292 1.716000 -0.365488
v 0.051117 1.716000 -0.020000
v 0.226855 1.716000 0.449248
v 0.820000 1.716000 0.506387
v 1.279915 1.716000 0.343848
v 1.276428 2.080800 -0.020000
v 1.083095 2.080800 -0.238087
v 0.820000 2.080800 -0.301810
v 0.512760 2.080800 -0.274680
v 0.383367 2.080800 -0.020000
v 0.578577 2.080800 0.180122
v 0.820000 2.080800 0.286273
v 1.142295 2.080800 0.247160
v 0.820000 2.260000 -0.020000
v 1.340000 1.200000 -0.160000
v 1.466464 1.200000 -0.160000
v 1.407848 1.200000 -0.237829
v 1.317521 1.200000 -0.250092
v 1.230860 1.200000 -0.208080
v 1.229578 1.200000 -0.111355
v 1.317305 1.200000 -0.069041
v 1.406768 1.200000 -0.083410
v 1.671960 1.392500 -0.160000
v 1.546671 1.392500 -0.376103
v 1.251787 1.392500 -0.482279
v 1.000950 1.392500 -0.296152
v 1.053725 1.392500 -0.045040
v 1.260689 1.392500 0.129758
v 1.591100 1.392500 0.102560
v 1.712074 1.602500 -0.160000
v 1.609999 1.602500 -0.427847
v 1.253671 1.602500 -0.459227
v 1.032513 1.602500 -0.277147
v 0.978560 1.602500 -0.022298
v 1.244570 1.602500 0.170770
v 1.564577 1.602500 0.062788
v 1.572738 1.802000 -0.160000
v 1.464291 1.802000 -0.289193
v 1.298469 1.802000 -0.310832
v 1.138130 1.802000 -0.240585
v 1.137370 1.802000 -0.079112
v 1.298341 1.802000 -0.008703
v 1.463651 1.802000 -0.031472
v 1.340000 1.900000 -0.160000
vn 0.8989 0.0685 -0.4329
vn 0.2220 0.0685 -0.9726
vn -0.6220 0.0685 -0.7800
vn -0.9977 0.0685 -0.0000
vn -0.6220 0.0685 0.7800
vn 0.2220 0.0685 0.9726
vn 0.8989 0.0685 0.4329
vn -0.0000 -1.0000 -0.0000
vn -0.0000 1.0000 -0.0000
vn 0.6690 -0.3625 0.6489
vn 0.6152 -0.6123 -0.4966
vn -0.2363 0.0415 -0.9708
vn -0.7089 0.6954 -0.1183
vn -0.1493 0.4456 0.8827
vn -0.6621 -0.7252 0.1892
vn 0.6621 0.7252 -0.1892
vn 0.6237 -0.6936 -0.3606
vn 0.3330 -0.7319 -0.5944
vn -0.2132 -0.7604 -0.6135
vn -0.6767 -0.7188 -0.1594
vn -0.6424 -0.7225 0.2557
vn -0.3048 -0.7614 0.5722
vn 0.2851 -0.7335 0.6170
vn 0.6621 -0.6997 0.2684
vn 0.8938 -0.3387 -0.2941
vn 0.3520 -0.1397 -0.9255
vn -0.4235 0.2077 -0.8818
vn -0.8862 -0.0887 -0.4547
vn -0.8807 -0.3823 0.2798
vn -0.2859 0.0316 0.9577
vn 0.4191 0.1817 0.8896
vn 0.8876 -0.0796 0.4536
vn 0.6985 0.6542 -0.2903
vn 0.1483 0.6426 -0.7517
vn -0.2908 0.4914 -0.8209
vn -0.6864 0.5001 -0.5279
vn -0.6189 0.7067 0.3430
vn -0.1536 0.6003 0.7849
vn 0.2261 0.4235 0.8772
vn 0.7680 0.4560 0.4498
vn -0.3477 -0.8855 0.3082
vn -0.1289 -0.8368 0.5321
vn 0.0473 -0.8429 0.5360
vn 0.3728 -0.9084 0.1894
vn 0.3560 -0.8675 -0.3473
vn 0.2168 -0.8426 -0.4930
vn -0.0612 -0.8615 -0.5041
vn -0.3595 -0.9155 -0.1805
vn 0.6150 -0.6882 -0.3848
vn 0.2104 -0.6983 -0.6842
vn -0.3731 -0.7457 -0.5520
vn -0.6876 -0.7189 0.1018
vn -0.4381 -0.6741 0.5947
vn 0.0687 -0.7165 0.6942
vn 0.6152 -0.7460 0.2549
vn 0.8726 -0.2654 -0.4100
vn 0.2057 -0.0984 -0.9737
vn -0.6101 0.1269 -0.7821
vn -0.9947 -0.1030 -0.0023
vn -0.5951 -0.2455 0.7652
vn 0.2035 0.0178 0.9789
vn 0.9048 0.0110 0.4257
vn 0.6919 0.6218 -0.3669
vn 0.0812 0.5955 -0.7992
vn -0.4742 0.5111 -0.7169
vn -0.8311 0.5453 -0.1092
vn -0.4133 0.6169 0.6698
vn 0.2138 0.5697 0.7936
vn 0.6846 0.5304 0.5000
vn -0.3690 -0.8763 0.3097
vn -0.0727 -0.8271 0.5574
vn 0.2146 -0.8450 0.4899
vn 0.4361 -0.8999 0.0021
vn 0.2139 -0.8457 -0.4889
vn -0.0767 -0.8271 -0.5568
vn -0.3686 -0.8754 -0.3128
vt 0.007812 0.015625
vt 0.117188 0.015625
vt 0.117188 0.984375
vt 0.007812 0.984375
vt 0.632812 0.015625
vt 0.742188 0.015625
vt 0.742188 0.984375
vt 0.632812 0.984375
vt 0.757812 0.015625
vt 0.867188 0.015625
vt 0.867188 0.984375
vt 0.757812 0.984375
s 0
usemtl lp_tree_bark_warm
f 1/1/1 2/2/1 9/3/1 8/4/1
f 2/1/2 3/2/2 10/3/2 9/4/2
f 3/1/3 4/2/3 11/3/3 10/4/3
f 4/1/4 5/2/4 12/3/4 11/4/4
f 5/1/5 6/2/5 13/3/5 12/4/5
f 6/1/6 7/2/6 14/3/6 13/4/6
f 7/1/7 1/2/7 8/3/7 14/4/7
f 7/1/8 6/2/8 5/3/8 4/4/8 3/1/8 2/2/8 1/3/8
f 8/1/9 9/2/9 10/3/9 11/4/9 12/1/9 13/2/9 14/3/9
f 15/1/10 16/2/10 21/3/10 20/4/10
f 16/1/11 17/2/11 22/3/11 21/4/11
f 17/1/12 18/2/12 23/3/12 22/4/12
f 18/1/13 19/2/13 24/3/13 23/4/13
f 19/1/14 15/2/14 20/3/14 24/4/14
f 19/1/15 18/2/15 17/3/15 16/4/15 15/1/15
f 20/1/16 21/2/16 22/3/16 23/4/16 24/1/16
usemtl lp_tree_leaf_autumn
f 25/5/9 26/6/9 27/7/9
f 25/5/9 27/6/9 28/7/9
f 25/5/9 28/6/9 29/7/9
f 25/5/9 29/6/9 30/7/9
f 25/5/9 30/6/9 31/7/9
f 25/5/9 31/6/9 32/7/9
f 25/5/9 32/6/9 33/7/9
f 25/5/9 33/6/9 26/7/9
f 26/5/17 27/6/17 35/7/17 34/8/17
f 27/5/18 28/6/18 36/7/18 35/8/18
f 28/5/19 29/6/19 37/7/19 36/8/19
f 29/5/20 30/6/20 38/7/20 37/8/20
f 30/5/21 31/6/21 39/7/21 38/8/21
f 31/5/22 32/6/22 40/7/22 39/8/22
f 32/5/23 33/6/23 41/7/23 40/8/23
f 33/5/24 26/6/24 34/7/24 41/8/24
f 34/5/25 35/6/25 43/7/25 42/8/25
f 35/5/26 36/6/26 44/7/26 43/8/26
f 36/5/27 37/6/27 45/7/27 44/8/27
f 37/5/28 38/6/28 46/7/28 45/8/28
f 38/5/29 39/6/29 47/7/29 46/8/29
f 39/5/30 40/6/30 48/7/30 47/8/30
f 40/5/31 41/6/31 49/7/31 48/8/31
f 41/5/32 34/6/32 42/7/32 49/8/32
f 42/5/33 43/6/33 51/7/33 50/8/33
f 43/5/34 44/6/34 52/7/34 51/8/34
f 44/5/35 45/6/35 53/7/35 52/8/35
f 45/5/36 46/6/36 54/7/36 53/8/36
f 46/5/37 47/6/37 55/7/37 54/8/37
f 47/5/38 48/6/38 56/7/38 55/8/38
f 48/5/39 49/6/39 57/7/39 56/8/39
f 49/5/40 42/6/40 50/7/40 57/8/40
f 50/5/41 58/6/41 51/7/41
f 51/5/42 58/6/42 52/7/42
f 52/5/43 58/6/43 53/7/43
f 53/5/44 58/6/44 54/7/44
f 54/5/45 58/6/45 55/7/45
f 55/5/46 58/6/46 56/7/46
f 56/5/47 58/6/47 57/7/47
f 57/5/48 58/6/48 50/7/48
usemtl lp_tree_leaf_yellow
f 59/9/9 60/10/9 61/11/9
f 59/9/9 61/10/9 62/11/9
f 59/9/9 62/10/9 63/11/9
f 59/9/9 63/10/9 64/11/9
f 59/9/9 64/10/9 65/11/9
f 59/9/9 65/10/9 66/11/9
f 59/9/9 66/10/9 60/11/9
f 60/9/49 61/10/49 68/11/49 67/12/49
f 61/9/50 62/10/50 69/11/50 68/12/50
f 62/9/51 63/10/51 70/11/51 69/12/51
f 63/9/52 64/10/52 71/11/52 70/12/52
f 64/9/53 65/10/53 72/11/53 71/12/53
f 65/9/54 66/10/54 73/11/54 72/12/54
f 66/9/55 60/10/55 67/11/55 73/12/55
f 67/9/56 68/10/56 75/11/56 74/12/56
f 68/9/57 69/10/57 76/11/57 75/12/57
f 69/9/58 70/10/58 77/11/58 76/12/58
f 70/9/59 71/10/59 78/11/59 77/12/59
f 71/9/60 72/10/60 79/11/60 78/12/60
f 72/9/61 73/10/61 80/11/61 79/12/61
f 73/9/62 67/10/62 74/11/62 80/12/62
f 74/9/63 75/10/63 82/11/63 81/12/63
f 75/9/64 76/10/64 83/11/64 82/12/64
f 76/9/65 77/10/65 84/11/65 83/12/65
f 77/9/66 78/10/66 85/11/66 84/12/66
f 78/9/67 79/10/67 86/11/67 85/12/67
f 79/9/68 80/10/68 87/11/68 86/12/68
f 80/9/69 74/10/69 81/11/69 87/12/69
f 81/9/70 88/10/70 82/11/70
f 82/9/71 88/10/71 83/11/71
f 83/9/72 88/10/72 84/11/72
f 84/9/73 88/10/73 85/11/73
f 85/9/74 88/10/74 86/11/74
f 86/9/75 88/10/75 87/11/75
f 87/9/76 88/10/76 81/11/76
