# Blender 5.1.1
# www.blender.org
mtllib tree_lp_03_tall_pine.mtl
o tree_lp_03_tall_pine
v -0.652630 0.000000 -0.062307
v -0.780275 0.000000 -0.158779
v -0.927644 0.000000 -0.096472
v -0.947370 0.000000 0.062307
v -0.819726 0.000000 0.158779
v -0.672356 0.000000 0.096472
v -0.726315 1.700000 -0.031153
v -0.790137 1.700000 -0.079390
v -0.863822 1.700000 -0.048236
v -0.873685 1.700000 0.031153
v -0.809863 1.700000 0.079390
v -0.736178 1.700000 0.048236
v -0.020000 0.750000 0.000000
v -0.313678 0.750000 -0.609829
v -0.973566 0.750000 -0.760444
v -1.502756 0.750000 -0.338429
v -1.502756 0.750000 0.338429
v -0.973566 0.750000 0.760444
v -0.313678 0.750000 0.609829
v -0.800000 1.820000 0.000000
v -0.150371 1.180000 -0.200954
v -0.552075 1.180000 -0.633193
v -1.140471 1.180000 -0.588625
v -1.472486 1.180000 -0.100810
v -1.298105 1.180000 0.462916
v -0.748641 1.180000 0.678058
v -0.237851 1.180000 0.382608
v -0.800000 2.300000 0.000000
v -0.354319 1.620000 -0.304907
v -0.760508 1.620000 -0.538554
v -1.196436 1.620000 -0.366659
v -1.333839 1.620000 0.081338
v -1.069251 1.620000 0.468085
v -0.601911 1.620000 0.502355
v -0.283736 1.620000 0.158341
v -0.800000 2.780000 0.000000
v -0.447176 2.030000 -0.071521
v -0.635935 2.030000 -0.320441
v -0.948238 2.030000 -0.328063
v -1.148915 2.030000 -0.088646
v -1.086852 2.030000 0.217523
v -0.808783 2.030000 0.359893
v -0.524101 2.030000 0.231256
v -0.800000 3.180000 0.000000
vn 0.6025 0.0407 -0.7971
vn -0.3891 0.0407 -0.9203
vn -0.9915 0.0407 -0.1232
vn -0.6025 0.0407 0.7971
vn 0.3891 0.0407 0.9203
vn 0.9915 0.0407 0.1232
vn -0.0000 -1.0000 -0.0000
vn -0.0000 1.0000 -0.0000
vn 0.7531 0.5490 -0.3627
vn 0.1860 0.5490 -0.8149
vn -0.5211 0.5490 -0.6535
vn -0.8358 0.5490 -0.0000
vn -0.5211 0.5490 0.6535
vn 0.1860 0.5490 0.8149
vn 0.7531 0.5490 0.3627
vn 0.6426 0.4799 -0.5972
vn -0.0663 0.4799 -0.8748
vn -0.7253 0.4799 -0.4936
vn -0.8381 0.4799 0.2593
vn -0.3199 0.4799 0.8169
vn 0.4393 0.4799 0.7594
vn 0.8676 0.4799 0.1301
vn 0.4598 0.3868 -0.7994
vn -0.3383 0.3868 -0.8579
vn -0.8816 0.3868 -0.2704
vn -0.7611 0.3868 0.5207
vn -0.0674 0.3868 0.9197
vn 0.6770 0.3868 0.6262
vn 0.9117 0.3868 -0.1389
vn 0.7669 0.2715 -0.5815
vn 0.0235 0.2715 -0.9622
vn -0.7376 0.2715 -0.6183
vn -0.9433 0.2715 0.1912
vn -0.4386 0.2715 0.8567
vn 0.3963 0.2715 0.8771
vn 0.9328 0.2715 0.2370
vt 0.132812 0.015625
vt 0.242188 0.015625
vt 0.242188 0.984375
vt 0.132812 0.984375
vt 0.382812 0.015625
vt 0.492188 0.015625
vt 0.492188 0.984375
vt 0.382812 0.984375
vt 0.257812 0.015625
vt 0.367188 0.015625
vt 0.367188 0.984375
vt 0.257812 0.984375
vt 0.507812 0.015625
vt 0.617188 0.015625
vt 0.617188 0.984375
vt 0.507812 0.984375
s 0
usemtl lp_tree_bark_dark
f 1/1/1 2/2/1 8/3/1 7/4/1
f 2/1/2 3/2/2 9/3/2 8/4/2
f 3/1/3 4/2/3 10/3/3 9/4/3
f 4/1/4 5/2/4 11/3/4 10/4/4
f 5/1/5 6/2/5 12/3/5 11/4/5
f 6/1/6 1/2/6 7/3/6 12/4/6
f 6/1/7 5/2/7 4/3/7 3/4/7 2/1/7 1/2/7
f 7/1/8 8/2/8 9/3/8 10/4/8 11/1/8 12/2/8
usemtl lp_tree_leaf_green
f 21/9/16 22/10/16 28/11/16
f 22/9/17 23/10/17 28/11/17
f 23/9/18 24/10/18 28/11/18
f 24/9/19 25/10/19 28/11/19
f 25/9/20 26/10/20 28/11/20
f 26/9/21 27/10/21 28/11/21
f 27/9/22 21/10/22 28/11/22
f 27/9/7 26/10/7 25/11/7 24/12/7 23/9/7 22/10/7 21/11/7
usemtl lp_tree_leaf_dark
f 13/5/9 14/6/9 20/7/9
f 14/5/10 15/6/10 20/7/10
f 15/5/11 16/6/11 20/7/11
f 16/5/12 17/6/12 20/7/12
f 17/5/13 18/6/13 20/7/13
f 18/5/14 19/6/14 20/7/14
f 19/5/15 13/6/15 20/7/15
f 19/5/7 18/6/7 17/7/7 16/8/7 15/5/7 14/6/7 13/7/7
f 29/5/23 30/6/23 36/7/23
f 30/5/24 31/6/24 36/7/24
f 31/5/25 32/6/25 36/7/25
f 32/5/26 33/6/26 36/7/26
f 33/5/27 34/6/27 36/7/27
f 34/5/28 35/6/28 36/7/28
f 35/5/29 29/6/29 36/7/29
f 35/5/7 34/6/7 33/7/7 32/8/7 31/5/7 30/6/7 29/7/7
usemtl lp_tree_leaf_light
f 37/13/30 38/14/30 44/15/30
f 38/13/31 39/14/31 44/15/31
f 39/13/32 40/14/32 44/15/32
f 40/13/33 41/14/33 44/15/33
f 41/13/34 42/14/34 44/15/34
f 42/13/35 43/14/35 44/15/35
f 43/13/36 37/14/36 44/15/36
f 43/13/7 42/14/7 41/15/7 40/16/7 39/13/7 38/14/7 37/15/7
