# Blender 5.1.1
# www.blender.org
mtllib tree_lp_06_small.mtl
o tree_lp_06_small
v 4.145337 0.000000 -0.037111
v 4.040530 0.000000 -0.144421
v 3.895193 0.000000 -0.107310
v 3.854663 0.000000 0.037111
v 3.959470 0.000000 0.144421
v 4.104807 0.000000 0.107310
v 4.096891 0.880000 -0.024740
v 4.027020 0.880000 -0.096280
v 3.930129 0.880000 -0.071540
v 3.903109 0.880000 0.024740
v 3.972980 0.880000 0.096280
v 4.069871 0.880000 0.071540
v 4.000000 0.770000 0.000000
v 4.203248 0.770000 0.000000
v 4.101537 0.770000 -0.116473
v 3.967737 0.770000 -0.129308
v 3.827871 0.770000 -0.075829
v 3.824934 0.770000 0.077122
v 3.967242 0.770000 0.131293
v 4.099065 0.770000 0.113637
v 4.485494 1.034000 0.000000
v 4.302007 1.034000 -0.315791
v 3.859125 1.034000 -0.514675
v 3.471087 1.034000 -0.212396
v 3.591913 1.034000 0.163875
v 3.879505 1.034000 0.440219
v 4.403727 1.034000 0.422153
v 4.556303 1.322000 0.000000
v 4.433882 1.322000 -0.430425
v 3.868118 1.322000 -0.457119
v 3.562300 1.322000 -0.166756
v 3.438775 1.322000 0.213817
v 3.847283 1.322000 0.529336
v 4.329891 1.322000 0.327262
v 4.373901 1.595600 0.000000
v 4.185460 1.595600 -0.192775
v 3.940284 1.595600 -0.216874
v 3.681028 1.595600 -0.127331
v 3.679289 1.595600 0.128025
v 3.939991 1.595600 0.217940
v 4.183995 1.595600 0.191253
v 4.000000 1.730000 0.000000
v 3.680000 0.860000 -0.180000
v 3.789824 0.860000 -0.180000
v 3.738921 0.860000 -0.247588
v 3.660479 0.860000 -0.258238
v 3.585221 0.860000 -0.221754
v 3.584107 0.860000 -0.137756
v 3.660291 0.860000 -0.101009
v 3.737983 0.860000 -0.113488
v 3.968281 1.025000 -0.180000
v 3.859477 1.025000 -0.367669
v 3.603394 1.025000 -0.459874
v 3.385562 1.025000 -0.298238
v 3.431392 1.025000 -0.080167
v 3.611124 1.025000 0.071632
v 3.898061 1.025000 0.048013
v 4.003117 1.205000 -0.180000
v 3.914473 1.205000 -0.412604
v 3.605030 1.205000 -0.439855
v 3.412972 1.205000 -0.281733
v 3.366118 1.205000 -0.060416
v 3.597127 1.205000 0.107248
v 3.875028 1.205000 0.013473
v 3.882114 1.376000 -0.180000
v 3.787937 1.376000 -0.292194
v 3.643934 1.376000 -0.310985
v 3.504692 1.376000 -0.249982
v 3.504032 1.376000 -0.109755
v 3.643822 1.376000 -0.048610
v 3.787381 1.376000 -0.068383
v 3.680000 1.460000 -0.180000
vn 0.7145 0.0491 -0.6979
vn -0.2471 0.0491 -0.9677
vn -0.9616 0.0491 -0.2699
vn -0.7145 0.0491 0.6979
vn 0.2471 0.0491 0.9677
vn 0.9616 0.0491 0.2699
vn -0.0000 -1.0000 -0.0000
vn -0.0000 1.0000 -0.0000
vn 0.5988 -0.6966 -0.3951
vn 0.2319 -0.7398 -0.6316
vn -0.3387 -0.7954 -0.5026
vn -0.6665 -0.7305 0.1485
vn -0.4387 -0.6942 0.5707
vn 0.0350 -0.7656 0.6424
vn 0.5926 -0.7788 0.2057
vn 0.8588 -0.3723 -0.3520
vn 0.2158 -0.1484 -0.9651
vn -0.6302 0.2418 -0.7378
vn -0.9943 -0.1063 -0.0035
vn -0.6030 -0.3653 0.7092
vn 0.2133 0.0491 0.9757
vn 0.9228 0.0674 0.3795
vn 0.6657 0.6683 -0.3320
vn 0.0467 0.6656 -0.7449
vn -0.4745 0.5262 -0.7057
vn -0.8310 0.5317 -0.1637
vn -0.3782 0.6835 0.6243
vn 0.2335 0.6290 0.7415
vn 0.6617 0.5290 0.5313
vn -0.3212 -0.8935 0.3139
vn -0.0527 -0.8423 0.5365
vn 0.1677 -0.8580 0.4855
vn 0.3874 -0.9219 0.0026
vn 0.1669 -0.8591 -0.4838
vn -0.0586 -0.8424 -0.5356
vn -0.3207 -0.8921 -0.3184
vn 0.6112 -0.6930 -0.3824
vn 0.2090 -0.7030 -0.6798
vn -0.3704 -0.7500 -0.5480
vn -0.6829 -0.7234 0.1011
vn -0.4355 -0.6789 0.5911
vn 0.0683 -0.7211 0.6895
vn 0.6107 -0.7503 0.2531
vn 0.8718 -0.2687 -0.4096
vn 0.2056 -0.0997 -0.9735
vn -0.6100 0.1285 -0.7819
vn -0.9945 -0.1044 -0.0023
vn -0.5947 -0.2485 0.7646
vn 0.2035 0.0180 0.9789
vn 0.9048 0.0112 0.4257
vn 0.6884 0.6268 -0.3650
vn 0.0808 0.6005 -0.7955
vn -0.4725 0.5160 -0.7144
vn -0.8279 0.5503 -0.1088
vn -0.4113 0.6219 0.6665
vn 0.2129 0.5747 0.7902
vn 0.6821 0.5354 0.4982
vn -0.3653 -0.8789 0.3066
vn -0.0721 -0.8305 0.5524
vn 0.2126 -0.8481 0.4853
vn 0.4315 -0.9021 0.0020
vn 0.2119 -0.8488 -0.4843
vn -0.0760 -0.8305 -0.5519
vn -0.3649 -0.8780 -0.3097
vt 0.007812 0.015625
vt 0.117188 0.015625
vt 0.117188 0.984375
vt 0.007812 0.984375
vt 0.507812 0.015625
vt 0.617188 0.015625
vt 0.617188 0.984375
vt 0.507812 0.984375
vt 0.257812 0.015625
vt 0.367188 0.015625
vt 0.367188 0.984375
vt 0.257812 0.984375
s 0
usemtl lp_tree_bark_warm
f 1/1/1 2/2/1 8/3/1 7/4/1
f 2/1/2 3/2/2 9/3/2 8/4/2
f 3/1/3 4/2/3 10/3/3 9/4/3
f 4/1/4 5/2/4 11/3/4 10/4/4
f 5/1/5 6/2/5 12/3/5 11/4/5
f 6/1/6 1/2/6 7/3/6 12/4/6
f 6/1/7 5/2/7 4/3/7 3/4/7 2/1/7 1/2/7
f 7/1/8 8/2/8 9/3/8 10/4/8 11/1/8 12/2/8
usemtl lp_tree_leaf_green
f 43/9/8 44/10/8 45/11/8
f 43/9/8 45/10/8 46/11/8
f 43/9/8 46/10/8 47/11/8
f 43/9/8 47/10/8 48/11/8
f 43/9/8 48/10/8 49/11/8
f 43/9/8 49/10/8 50/11/8
f 43/9/8 50/10/8 44/11/8
f 44/9/37 45/10/37 52/11/37 51/12/37
f 45/9/38 46/10/38 53/11/38 52/12/38
f 46/9/39 47/10/39 54/11/39 53/12/39
f 47/9/40 48/10/40 55/11/40 54/12/40
f 48/9/41 49/10/41 56/11/41 55/12/41
f 49/9/42 50/10/42 57/11/42 56/12/42
f 50/9/43 44/10/43 51/11/43 57/12/43
f 51/9/44 52/10/44 59/11/44 58/12/44
f 52/9/45 53/10/45 60/11/45 59/12/45
f 53/9/46 54/10/46 61/11/46 60/12/46
f 54/9/47 55/10/47 62/11/47 61/12/47
f 55/9/48 56/10/48 63/11/48 62/12/48
f 56/9/49 57/10/49 64/11/49 63/12/49
f 57/9/50 51/10/50 58/11/50 64/12/50
f 58/9/51 59/10/51 66/11/51 65/12/51
f 59/9/52 60/10/52 67/11/52 66/12/52
f 60/9/53 61/10/53 68/11/53 67/12/53
f 61/9/54 62/10/54 69/11/54 68/12/54
f 62/9/55 63/10/55 70/11/55 69/12/55
f 63/9/56 64/10/56 71/11/56 70/12/56
f 64/9/57 58/10/57 65/11/57 71/12/57
f 65/9/58 72/10/58 66/11/58
f 66/9/59 72/10/59 67/11/59
f 67/9/60 72/10/60 68/11/60
f 68/9/61 72/10/61 69/11/61
f 69/9/62 72/10/62 70/11/62
f 70/9/63 72/10/63 71/11/63
f 71/9/64 72/10/64 65/11/64
usemtl lp_tree_leaf_light
f 13/5/8 14/6/8 15/7/8
f 13/5/8 15/6/8 16/7/8
f 13/5/8 16/6/8 17/7/8
f 13/5/8 17/6/8 18/7/8
f 13/5/8 18/6/8 19/7/8
f 13/5/8 19/6/8 20/7/8
f 13/5/8 20/6/8 14/7/8
f 14/5/9 15/6/9 22/7/9 21/8/9
f 15/5/10 16/6/10 23/7/10 22/8/10
f 16/5/11 17/6/11 24/7/11 23/8/11
f 17/5/12 18/6/12 25/7/12 24/8/12
f 18/5/13 19/6/13 26/7/13 25/8/13
f 19/5/14 20/6/14 27/7/14 26/8/14
f 20/5/15 14/6/15 21/7/15 27/8/15
f 21/5/16 22/6/16 29/7/16 28/8/16
f 22/5/17 23/6/17 30/7/17 29/8/17
f 23/5/18 24/6/18 31/7/18 30/8/18
f 24/5/19 25/6/19 32/7/19 31/8/19
f 25/5/20 26/6/20 33/7/20 32/8/20
f 26/5/21 27/6/21 34/7/21 33/8/21
f 27/5/22 21/6/22 28/7/22 34/8/22
f 28/5/23 29/6/23 36/7/23 35/8/23
f 29/5/24 30/6/24 37/7/24 36/8/24
f 30/5/25 31/6/25 38/7/25 37/8/25
f 31/5/26 32/6/26 39/7/26 38/8/26
f 32/5/27 33/6/27 40/7/27 39/8/27
f 33/5/28 34/6/28 41/7/28 40/8/28
f 34/5/29 28/6/29 35/7/29 41/8/29
f 35/5/30 42/6/30 36/7/30
f 36/5/31 42/6/31 37/7/31
f 37/5/32 42/6/32 38/7/32
f 38/5/33 42/6/33 39/7/33
f 39/5/34 42/6/34 40/7/34
f 40/5/35 42/6/35 41/7/35
f 41/5/36 42/6/36 35/7/36
